<svg xmlns="http://www.w3.org/2000/svg" width="24" height="24" viewBox="0 0 24 24">
    <g fill="none" fill-rule="evenodd" stroke="#000" stroke-linecap="round" stroke-linejoin="round" stroke-width="1.5">
        <circle cx="17.25" cy="16.5" r="1.5"/>
        <path d="M18.524 10.7l.442 1.452c.15.5.664.799 1.174.681l1.472-.341c.573-.13 1.163.13 1.455.639.293.509.22 1.15-.18 1.579l-1.031 1.111c-.357.384-.357.978 0 1.362l1.031 1.111c.4.43.474 1.07.182 1.58-.293.51-.884.769-1.457.639l-1.472-.342c-.51-.114-1.02.183-1.174.681l-.442 1.448c-.169.563-.687.948-1.274.948s-1.105-.385-1.274-.948l-.442-1.453c-.154-.498-.665-.795-1.174-.681l-1.472.342c-.573.13-1.164-.13-1.457-.639-.292-.51-.219-1.15.182-1.58l1.031-1.111c.357-.384.357-.978 0-1.362l-1.031-1.111c-.4-.43-.473-1.07-.18-1.58.292-.508.882-.767 1.455-.638l1.472.341c.51.118 1.023-.18 1.174-.681l.442-1.452c.17-.562.688-.947 1.276-.946.587.002 1.104.388 1.272.951zM8.25 14.25c-2.291 0-4.217-1.722-4.472-3.999-.256-2.277 1.241-4.382 3.476-4.89 2.235-.507 4.493.747 5.246 2.911"/>
        <path d="M9.75 9.75L8.25 9.75 8.25 8.25"/>
        <path d="M7.5 20.25H2.25c-.828 0-1.5-.672-1.5-1.5V2.25c0-.828.672-1.5 1.5-1.5h10.629c.398 0 .779.159 1.06.44l2.872 2.871c.281.281.44.663.439 1.061V6.75"/>
    </g>
</svg>
