<svg xmlns="http://www.w3.org/2000/svg" width="24" height="24" viewBox="0 0 24 24">
    <g fill="none" fill-rule="evenodd" stroke="#000" stroke-linecap="round" stroke-linejoin="round" stroke-width="1.5">
        <path d="M5.252 23.253h-3c-.828 0-1.5-.672-1.5-1.5v-19.5c0-.828.672-1.5 1.5-1.5h10.629c.398 0 .779.159 1.06.44l5.872 5.871c.281.281.439.663.439 1.061v4.628"/>
        <path d="M20.252 8.253h-6c-.828 0-1.5-.672-1.5-1.5v-6M8.252 23.253v-6c0-.828.672-1.5 1.5-1.5s1.5.672 1.5 1.5v6M8.252 20.253L11.252 20.253M14.252 23.253L14.252 15.753M14.252 15.753H15c1.243 0 2.25 1.007 2.25 2.25s-1.007 2.25-2.25 2.25h-.75M20.252 23.253L20.252 15.753M23.252 23.253L20.252 19.503 23.252 15.753"/>
    </g>
</svg>
