<svg xmlns="http://www.w3.org/2000/svg" width="24" height="24" viewBox="0 0 24 24">
    <g fill="none" fill-rule="evenodd" stroke="#000" stroke-linecap="round" stroke-linejoin="round" stroke-width="1.5">
        <path d="M5.241 23.254h-3c-.828 0-1.5-.672-1.5-1.5v-19.5c0-.828.672-1.5 1.5-1.5H12.87c.398 0 .78.158 1.061.439L19.8 7.064c.281.281.439.663.439 1.061v4.629"/>
        <path d="M20.241 8.254h-6c-.828 0-1.5-.672-1.5-1.5v-6M8.241 23.254v-6c0-.828.672-1.5 1.5-1.5s1.5.672 1.5 1.5v6M8.241 20.254L11.241 20.254M20.241 23.254L20.241 15.754M20.241 15.754h.75c1.243 0 2.25 1.007 2.25 2.25s-1.007 2.25-2.25 2.25h-.75M14.241 23.254L14.241 15.754M14.241 15.754h.75c1.243 0 2.25 1.007 2.25 2.25s-1.007 2.25-2.25 2.25h-.75"/>
    </g>
</svg>
