<svg xmlns="http://www.w3.org/2000/svg" width="24" height="24" viewBox="0 0 24 24">
    <g fill="none" fill-rule="evenodd" stroke="#000" stroke-linecap="round" stroke-linejoin="round" stroke-width="1.5">
        <path d="M5.244 23.254h-3c-.828 0-1.5-.672-1.5-1.5v-19.5c0-.828.672-1.5 1.5-1.5h10.628c.398 0 .78.158 1.061.439L19.8 7.064c.282.281.44.663.44 1.061v4.629"/>
        <path d="M20.244 8.254h-6c-.828 0-1.5-.672-1.5-1.5v-6M8.244 23.254v-6c0-.828.672-1.5 1.5-1.5s1.5.672 1.5 1.5v6M8.244 20.254L11.244 20.254M17.244 15.754h-1.5c-.828 0-1.5.672-1.5 1.5 0 2.25 3 2.25 3 4.5 0 .828-.672 1.5-1.5 1.5h-1.5M20.244 23.254L20.244 15.754M20.244 15.754h.75c1.243 0 2.25 1.007 2.25 2.25s-1.007 2.25-2.25 2.25h-.75"/>
    </g>
</svg>
