<svg xmlns="http://www.w3.org/2000/svg" width="24" height="24" viewBox="0 0 24 24">
    <g fill="none" fill-rule="evenodd" stroke="#000" stroke-linecap="round" stroke-linejoin="round" stroke-width="1.5">
        <path d="M12 16.5c-.207 0-.375.168-.375.375s.168.375.375.375.375-.168.375-.375-.168-.375-.375-.375h0M12 13.5L12 6"/>
        <path d="M1.28 13.281c-.707-.707-.707-1.854 0-2.561l9.44-9.439c.34-.34.8-.531 1.28-.531s.94.191 1.28.531l9.44 9.439c.707.707.707 1.854 0 2.561l-9.44 9.439c-.707.706-1.853.706-2.56 0l-9.44-9.439z"/>
    </g>
</svg>
