<svg xmlns="http://www.w3.org/2000/svg" width="24" height="24" viewBox="0 0 24 24">
    <g fill="none" fill-rule="evenodd" stroke="#000" stroke-linecap="round" stroke-linejoin="round" stroke-width="1.5">
        <path d="M8.241 23.253h-6c-.828 0-1.5-.672-1.5-1.5v-19.5c0-.828.672-1.5 1.5-1.5h10.628c.398 0 .78.158 1.061.44l5.87 5.871c.282.281.44.663.44 1.061v4.628"/>
        <path d="M20.241 8.253h-6c-.828 0-1.5-.672-1.5-1.5v-6M11.241 23.253L11.241 15.753M11.241 15.753h1.5c.828 0 1.5.672 1.5 1.5V18c0 .828-.672 1.5-1.5 1.5h-1.5M11.241 19.5h1.5c.828 0 1.5.672 1.5 1.5v.75c0 .828-.672 1.5-1.5 1.5h-1.5M17.241 23.254L17.241 15.754M20.241 23.254L20.241 15.754 23.241 23.254 23.241 15.754"/>
    </g>
</svg>
