<svg xmlns="http://www.w3.org/2000/svg" width="24" height="24" viewBox="0 0 24 24">
    <g fill="none" fill-rule="evenodd" stroke="#000" stroke-linecap="round" stroke-linejoin="round" stroke-width="1.5">
        <path d="M5.25 23.253h-3c-.828 0-1.5-.672-1.5-1.5v-19.5c0-.828.672-1.5 1.5-1.5h10.629c.398 0 .779.159 1.06.44l5.872 5.871c.281.281.439.663.439 1.061v4.628"/>
        <path d="M20.25 8.253h-6c-.828 0-1.5-.672-1.5-1.5v-6M11.25 15.753c-1.657 0-3 1.343-3 3v1.5c0 1.657 1.343 3 3 3M17.25 15.753h-1.5c-.828 0-1.5.672-1.5 1.5 0 2.25 3 2.25 3 4.5 0 .828-.672 1.5-1.5 1.5h-1.5M23.25 15.753h-1.5c-.828 0-1.5.672-1.5 1.5 0 2.25 3 2.25 3 4.5 0 .828-.672 1.5-1.5 1.5h-1.5"/>
    </g>
</svg>
