<svg xmlns="http://www.w3.org/2000/svg" width="24" height="24" viewBox="0 0 24 24">
    <g fill="none" fill-rule="evenodd" stroke="#000" stroke-linecap="round" stroke-linejoin="round" stroke-width="1.5">
        <path d="M5.251 23.254h-3c-.828 0-1.5-.672-1.5-1.5v-19.5c0-.828.672-1.5 1.5-1.5H12.88c.398 0 .779.158 1.06.439l5.872 5.871c.281.281.439.663.439 1.061v4.629"/>
        <path d="M20.251 8.254h-6c-.828 0-1.5-.672-1.5-1.5v-6M11.251 15.754c-1.657 0-3 1.343-3 3v1.5c0 1.657 1.343 3 3 3M17.251 15.754h-1.5c-.828 0-1.5.672-1.5 1.5 0 2.25 3 2.25 3 4.5 0 .828-.672 1.5-1.5 1.5h-1.5M20.251 15.754V18.3c0 1.764.522 3.488 1.5 4.955.978-1.467 1.5-3.191 1.5-4.955v-2.546"/>
    </g>
</svg>
