<svg xmlns="http://www.w3.org/2000/svg" width="24" height="24" viewBox="0 0 24 24">
    <g fill="none" fill-rule="evenodd" stroke="#000" stroke-linecap="round" stroke-linejoin="round" stroke-width="1.5">
        <path d="M5.25 23.254h-3c-.828 0-1.5-.672-1.5-1.5v-19.5c0-.828.672-1.5 1.5-1.5h10.629c.398 0 .779.158 1.06.439l5.872 5.871c.281.281.439.663.439 1.061v4.629"/>
        <path d="M20.25 8.254h-6c-.828 0-1.5-.672-1.5-1.5v-6M8.25 23.254c1.657 0 3-1.343 3-3v-1.5c0-1.657-1.343-3-3-3v7.5zM14.25 23.254v-6c0-.828.672-1.5 1.5-1.5s1.5.672 1.5 1.5v6M14.25 20.254L17.25 20.254M21.75 23.254L21.75 15.754M20.25 15.754L23.25 15.754"/>
    </g>
</svg>
