<svg xmlns="http://www.w3.org/2000/svg" width="24" height="24" viewBox="0 0 24 24">
    <g fill="none" fill-rule="evenodd" stroke="#000" stroke-linecap="round" stroke-linejoin="round" stroke-width="1.5">
        <path d="M3.74 23.254h-1.5c-.828 0-1.5-.672-1.5-1.5v-19.5c0-.828.672-1.5 1.5-1.5h10.629c.398 0 .78.158 1.061.439l5.87 5.871c.281.281.439.663.439 1.061v4.629"/>
        <path d="M20.24 8.254h-6c-.828 0-1.5-.672-1.5-1.5v-6M22.49 20.254h.75v1.5c0 .828-.672 1.5-1.5 1.5s-1.5-.672-1.5-1.5v-4.5c0-.828.672-1.5 1.5-1.5h1.5M17.24 23.254L17.24 15.754 14.99 19.504 12.74 15.754 12.74 23.254M6.74 23.254c1.657 0 3-1.343 3-3v-1.5c0-1.657-1.343-3-3-3v7.5z"/>
    </g>
</svg>
