<svg xmlns="http://www.w3.org/2000/svg" width="24" height="24" viewBox="0 0 24 24">
    <g fill="none" fill-rule="evenodd" stroke="#000" stroke-linecap="round" stroke-linejoin="round" stroke-width="1.5">
        <path d="M5.247 23.248h-3c-.828 0-1.5-.672-1.5-1.5v-19.5c0-.828.672-1.5 1.5-1.5h10.629c.398 0 .78.158 1.061.439l5.871 5.872c.281.281.439.662.439 1.06v4.629"/>
        <path d="M20.247 8.248h-6c-.828 0-1.5-.672-1.5-1.5v-6M8.247 23.248c1.657 0 3-1.343 3-3v-1.5c0-1.657-1.343-3-3-3v7.5zM15.747 15.748c-.828 0-1.5.672-1.5 1.5v4.5c0 .828.672 1.5 1.5 1.5s1.5-.672 1.5-1.5v-4.5c0-.828-.672-1.5-1.5-1.5h0zM23.247 15.748c-1.657 0-3 1.343-3 3v1.5c0 1.657 1.343 3 3 3"/>
    </g>
</svg>
