<svg xmlns="http://www.w3.org/2000/svg" width="24" height="24" viewBox="0 0 24 24">
    <g fill="none" fill-rule="evenodd" stroke="#000" stroke-linecap="round" stroke-linejoin="round" stroke-width="1.5">
        <path d="M18.376 10.5H5.626C2.936 10.493.758 8.314.751 5.625h0C.759 2.935 2.937.758 5.626.75h12.75c2.689.008 4.867 2.186 4.875 4.875h0c-.008 2.69-2.186 4.867-4.875 4.875zM18.376 23.25H5.626c-2.69-.007-4.868-2.186-4.875-4.875h0c.008-2.69 2.186-4.867 4.875-4.875h12.75c2.689.008 4.867 2.186 4.875 4.875h0c-.008 2.69-2.186 4.867-4.875 4.875h0z"/>
        <circle cx="5.626" cy="5.625" r="1.875"/>
        <circle cx="18.376" cy="18.375" r="1.875"/>
    </g>
</svg>
