<svg xmlns="http://www.w3.org/2000/svg" width="24" height="24" viewBox="0 0 24 24">
    <g fill="none" fill-rule="evenodd" stroke="#000" stroke-linecap="round" stroke-linejoin="round" stroke-width="1.5">
        <path d="M5.252 23.253h-3c-.828 0-1.5-.672-1.5-1.5v-19.5c0-.828.672-1.5 1.5-1.5H12.88c.398 0 .78.158 1.061.44l5.871 5.871c.282.281.44.663.44 1.061v3.128"/>
        <path d="M20.252 8.253h-6c-.828 0-1.5-.672-1.5-1.5v-6M8.252 21.753L8.252 14.253M11.252 21.753L11.252 14.253M8.252 18.753L11.252 18.753M17.252 20.253c0 .828-.672 1.5-1.5 1.5s-1.5-.672-1.5-1.5v-4.5c0-.536.286-1.031.75-1.299s1.036-.268 1.5 0c.464.268.75.763.75 1.299v4.5zM15.752 21.753L17.252 23.253M20.252 14.253L23.252 21.753M23.252 14.253L20.252 21.753"/>
    </g>
</svg>
