<svg xmlns="http://www.w3.org/2000/svg" width="24" height="24" viewBox="0 0 24 24">
    <g fill="none" fill-rule="evenodd" stroke="#000" stroke-linecap="round" stroke-linejoin="round" stroke-width="1.5">
        <circle cx="17.25" cy="16.5" r="1.5"/>
        <path d="M18.524 10.7l.442 1.453c.151.5.664.798 1.174.681l1.472-.341c.573-.13 1.163.13 1.455.639.293.509.22 1.15-.18 1.579l-1.031 1.111c-.357.384-.357.978 0 1.362l1.031 1.111c.4.43.473 1.07.18 1.58-.292.508-.882.767-1.455.638l-1.472-.341c-.51-.117-1.023.18-1.174.681l-.442 1.447c-.169.563-.687.948-1.274.948s-1.105-.385-1.274-.948l-.442-1.453c-.151-.5-.664-.798-1.174-.681l-1.472.341c-.573.13-1.163-.13-1.455-.639-.293-.509-.22-1.15.18-1.579l1.031-1.111c.357-.384.357-.978 0-1.362l-1.031-1.111c-.4-.43-.473-1.07-.18-1.58.292-.508.882-.767 1.455-.638l1.472.341c.51.117 1.023-.18 1.174-.681l.442-1.453c.17-.562.689-.947 1.276-.945.588.001 1.105.388 1.272.951h0z"/>
        <path d="M8.25 20.25h-6c-.828 0-1.5-.672-1.5-1.5V2.25c0-.828.672-1.5 1.5-1.5h10.629c.398 0 .779.158 1.06.439l2.872 2.872c.281.281.439.662.439 1.06V6.75"/>
    </g>
</svg>
