<svg xmlns="http://www.w3.org/2000/svg" width="24" height="24" viewBox="0 0 24 24">
    <g fill="none" fill-rule="evenodd" stroke="#000" stroke-linecap="round" stroke-linejoin="round" stroke-width="1.5">
        <path d="M8.241 23.254h-6c-.828 0-1.5-.672-1.5-1.5v-19.5c0-.828.672-1.5 1.5-1.5H12.87c.398 0 .779.158 1.06.439l5.87 5.871c.281.281.439.663.439 1.061v4.629"/>
        <path d="M20.241 8.254h-6c-.828 0-1.5-.672-1.5-1.5v-6M11.241 23.254L11.241 15.754M17.241 15.754h-1.5c-.828 0-1.5.672-1.5 1.5 0 2.25 3 2.25 3 4.5 0 .828-.672 1.5-1.5 1.5h-1.5M21.741 15.754c-.828 0-1.5.672-1.5 1.5v4.5c0 .828.672 1.5 1.5 1.5s1.5-.672 1.5-1.5v-4.5c0-.828-.672-1.5-1.5-1.5z"/>
    </g>
</svg>
