<svg xmlns="http://www.w3.org/2000/svg" width="24" height="24" viewBox="0 0 24 24">
    <g fill="none" fill-rule="evenodd" stroke="#000" stroke-linecap="round" stroke-linejoin="round" stroke-width="1.5">
        <path d="M.749 19.5V2.253c0-.828.672-1.5 1.5-1.5h10.629c.398 0 .78.158 1.061.44l5.871 5.871c.281.281.439.663.439 1.061v4.628"/>
        <path d="M20.249 8.253h-6c-.828 0-1.5-.672-1.5-1.5v-6M5.249 15.753v6c0 .828-.672 1.5-1.5 1.5h-1.5M8.249 23.253v-6c0-.828.672-1.5 1.5-1.5s1.5.672 1.5 1.5v6M8.249 20.253L11.249 20.253M20.249 23.253v-6c0-.828.672-1.5 1.5-1.5s1.5.672 1.5 1.5v6M20.249 20.253L23.249 20.253M14.249 15.753V18.3c0 1.763.522 3.487 1.5 4.954.978-1.467 1.5-3.19 1.5-4.954v-2.547"/>
    </g>
</svg>
