<svg xmlns="http://www.w3.org/2000/svg" width="24" height="24" viewBox="0 0 24 24">
    <g fill="none" fill-rule="evenodd" stroke="#000" stroke-linecap="round" stroke-linejoin="round" stroke-width="1.5">
        <path d="M10.5 23.253H2.25c-.828 0-1.5-.672-1.5-1.5v-19.5c0-.828.672-1.5 1.5-1.5h10.629c.398 0 .78.158 1.061.44l5.871 5.871c.281.281.439.663.439 1.061v4.628"/>
        <path d="M20.25 8.253h-6c-.828 0-1.5-.672-1.5-1.5v-6M17.25 15.753v6c0 .828-.672 1.5-1.5 1.5h-1.5M23.25 15.753h-1.5c-.828 0-1.5.672-1.5 1.5 0 2.25 3 2.25 3 4.5 0 .828-.672 1.5-1.5 1.5h-1.5"/>
    </g>
</svg>
