<svg xmlns="http://www.w3.org/2000/svg" width="24" height="24" viewBox="0 0 24 24">
    <g fill="none" fill-rule="evenodd" stroke="#000" stroke-linecap="round" stroke-linejoin="round" stroke-width="1.5">
        <path d="M22 22c0 .828-.672 1.5-1.5 1.5h-18c-.828 0-1.5-.672-1.5-1.5V2.5C1 1.672 1.672 1 2.5 1h15c.391 0 .767.153 1.047.426l3 2.883c.29.282.453.67.453 1.074V22z"/>
        <path d="M8.996 7.337c-.071-.517-.244-1.015-.509-1.465-.274-.454-.759-.74-1.289-.758-.684.074-1.23.603-1.325 1.284-.074.67.099 1.343.487 1.894 1.223 1.409 2.538 2.735 3.936 3.971 1.565 1.268 3.336 2.259 5.236 2.929.52.243 1.09.364 1.664.354.587-.024 1.095-.417 1.265-.98.064-.46-.12-.918-.484-1.206-.361-.279-.786-.463-1.237-.536-1.793-.262-3.623-.068-5.321.565-1.622.5-6.362 2.066-6.144 6.051.006.1-.007.762.847.666.71-.139 1.33-.569 1.708-1.186 1.093-1.543 1.207-3.51 1.35-5.331.21-2.083.15-4.185-.184-6.252z"/>
    </g>
</svg>
