<svg xmlns="http://www.w3.org/2000/svg" width="24" height="24" viewBox="0 0 24 24">
    <g fill="none" fill-rule="evenodd" stroke="#000" stroke-linecap="round" stroke-linejoin="round" stroke-width="1.5">
        <path d="M5 23.254H2.75c-.828 0-1.5-.672-1.5-1.5v-19.5c0-.828.672-1.5 1.5-1.5h10.629c.398 0 .779.158 1.06.439l5.872 5.871c.281.281.439.663.439 1.061v4.629"/>
        <path d="M20.75 8.254h-6c-.828 0-1.5-.672-1.5-1.5v-6M8 23.254L8 15.754M8 15.754h.75c1.243 0 2.25 1.007 2.25 2.25s-1.007 2.25-2.25 2.25H8M20 23.254L20 15.754M20 15.754h.75c1.243 0 2.25 1.007 2.25 2.25s-1.007 2.25-2.25 2.25H20M14 23.254L14 15.754M17 23.254L17 15.754M14 20.254L17 20.254"/>
    </g>
</svg>
