<svg xmlns="http://www.w3.org/2000/svg" width="24" height="24" viewBox="0 0 24 24">
    <g fill="none" fill-rule="evenodd" stroke="#000" stroke-linecap="round" stroke-linejoin="round" stroke-width="1.5">
        <path d="M11.249 23.253h-9c-.828 0-1.5-.672-1.5-1.5v-19.5c0-.828.672-1.5 1.5-1.5h10.629c.398 0 .779.159 1.06.44l5.872 5.871c.281.281.439.663.439 1.061v4.628"/>
        <path d="M20.249 8.253h-6c-.828 0-1.5-.672-1.5-1.5v-6M14.249 23.253L14.249 15.753M14.249 15.753H15c1.243 0 2.25 1.007 2.25 2.25s-1.007 2.25-2.25 2.25h-.75M20.249 15.753v6c0 .828.672 1.5 1.5 1.5h1.5"/>
    </g>
</svg>
