<svg xmlns="http://www.w3.org/2000/svg" width="24" height="24" viewBox="0 0 24 24">
    <g fill="none" fill-rule="evenodd" stroke="#000" stroke-linecap="round" stroke-linejoin="round" stroke-width="1.5">
        <path d="M5.249 23.248h-3c-.828 0-1.5-.672-1.5-1.5v-19.5c0-.828.672-1.5 1.5-1.5h10.629c.398 0 .78.158 1.061.439l5.871 5.872c.281.281.439.662.439 1.06v4.629"/>
        <path d="M20.249 8.248h-6c-.828 0-1.5-.672-1.5-1.5v-6M8.249 23.248L8.249 15.748M8.249 15.748H9c1.243 0 2.25 1.007 2.25 2.25s-1.007 2.25-2.25 2.25h-.75M14.249 23.248L14.249 15.748M14.249 15.748H15c1.243 0 2.25 1.007 2.25 2.25s-1.007 2.25-2.25 2.25h-.75M21.749 23.248L21.749 15.748M20.249 15.748L23.249 15.748"/>
    </g>
</svg>
