<svg xmlns="http://www.w3.org/2000/svg" width="24" height="24" viewBox="0 0 24 24">
    <g fill="none" fill-rule="evenodd" stroke="#000" stroke-linecap="round" stroke-linejoin="round" stroke-width="1.5">
        <path d="M5.25 23.25h-3c-.828 0-1.5-.672-1.5-1.5V2.25c0-.828.672-1.5 1.5-1.5h10.629c.398 0 .78.158 1.061.439l5.871 5.872c.281.281.439.662.439 1.06v4.629"/>
        <path d="M20.25 8.25h-6c-.828 0-1.5-.672-1.5-1.5v-6M8.25 23.25L8.25 15.75M8.25 15.75h1.125c1.036 0 1.875.84 1.875 1.875 0 1.036-.84 1.875-1.875 1.875H8.25M11.25 23.25L9 19.5M20.25 23.25L20.25 15.75M20.25 15.75h1.125c1.036 0 1.875.84 1.875 1.875 0 1.036-.84 1.875-1.875 1.875H20.25M23.25 23.25L21 19.5M14.25 23.25v-6c0-.828.672-1.5 1.5-1.5s1.5.672 1.5 1.5v6M14.25 20.25L17.25 20.25"/>
    </g>
</svg>
