<svg xmlns="http://www.w3.org/2000/svg" width="24" height="24" viewBox="0 0 24 24">
    <g fill="none" fill-rule="evenodd" stroke="#000" stroke-linecap="round" stroke-linejoin="round" stroke-width="1.5">
        <path d="M11.244 23.253h-9c-.828 0-1.5-.672-1.5-1.5v-19.5c0-.828.672-1.5 1.5-1.5h10.628c.398 0 .78.158 1.061.44L19.8 7.064c.282.281.44.663.44 1.061v4.628"/>
        <path d="M20.244 8.253h-6c-.828 0-1.5-.672-1.5-1.5v-6M14.244 23.253L14.244 15.753M14.244 15.753h1.125c1.036 0 1.875.84 1.875 1.875 0 1.036-.84 1.875-1.875 1.875h-1.125M17.244 23.253L14.994 19.503M20.244 23.253L20.244 15.753M20.244 15.753h1.5c.828 0 1.5.672 1.5 1.5V18c0 .828-.672 1.5-1.5 1.5h-1.5M20.244 19.5h1.5c.828 0 1.5.672 1.5 1.5v.75c0 .828-.672 1.5-1.5 1.5h-1.5"/>
    </g>
</svg>
