<svg xmlns="http://www.w3.org/2000/svg" width="24" height="24" viewBox="0 0 24 24">
    <g fill="none" fill-rule="evenodd" stroke="#000" stroke-linecap="round" stroke-linejoin="round" stroke-width="1.5">
        <path d="M1.25.75h11c.276 0 .5.224.5.5v3c0 .552-.448 1-1 1h-10c-.552 0-1-.448-1-1v-3c0-.276.224-.5.5-.5zM6.75 7.875c.207 0 .375.168.375.375M6.375 8.25c0-.207.168-.375.375-.375M6.75 8.625c-.207 0-.375-.168-.375-.375M7.125 8.25c0 .207-.168.375-.375.375M2.25 14.25L2.25 17.25M2.25 20.25v1.5c0 .828.672 1.5 1.5 1.5h1.5M8.25 23.25L11.25 23.25"/>
        <rect width="7.5" height="12" x="15.75" y="11.25" rx="1.5"/>
        <path d="M19.5 19.875L19.5 19.875M19.875 20.25c0-.207-.168-.375-.375-.375M19.5 20.625c.207 0 .375-.168.375-.375M19.125 20.25c0 .207.168.375.375.375M19.5 19.875c-.207 0-.375.168-.375.375M17.379 7.629c1.171-1.171 3.07-1.171 4.242 0M16.5 4.451c1.89-.935 4.11-.935 6 0M2.014 5.231c-1.056 2.207-.447 4.85 1.466 6.373 1.914 1.523 4.626 1.523 6.54 0 1.913-1.523 2.522-4.166 1.466-6.373"/>
    </g>
</svg>
