<svg xmlns="http://www.w3.org/2000/svg" width="24" height="24" viewBox="0 0 24 24">
    <g fill="none" fill-rule="evenodd" stroke="#000" stroke-linecap="round" stroke-linejoin="round" stroke-width="1.5">
        <path d="M5.249 23.254h-3c-.828 0-1.5-.672-1.5-1.5v-19.5c0-.828.672-1.5 1.5-1.5h10.628c.398 0 .78.158 1.061.439l5.871 5.871c.282.281.44.663.44 1.061v3.129"/>
        <path d="M20.249 8.254h-6c-.828 0-1.5-.672-1.5-1.5v-6M20.249 14.254v6c0 .828.672 1.5 1.5 1.5h1.5M11.249 14.254h-1.5c-.828 0-1.5.672-1.5 1.5 0 2.25 3 2.25 3 4.5 0 .828-.672 1.5-1.5 1.5h-1.5M17.249 20.254c0 .828-.672 1.5-1.5 1.5s-1.5-.672-1.5-1.5v-4.5c0-.828.672-1.5 1.5-1.5s1.5.672 1.5 1.5v4.5zM15.749 21.754L17.249 23.254"/>
    </g>
</svg>
