<svg xmlns="http://www.w3.org/2000/svg" width="24" height="24" viewBox="0 0 24 24">
    <g fill="none" fill-rule="evenodd" stroke="#000" stroke-linecap="round" stroke-linejoin="round" stroke-width="1.5">
        <rect width="16.5" height="22.5" x="3.75" y=".75" rx="1.5"/>
        <rect width="10.5" height="4.5" x="6.75" y="3.75" rx=".75"/>
        <path d="M7.875 12c.207 0 .375.168.375.375s-.168.375-.375.375-.375-.168-.375-.375.168-.375.375-.375M12.156 12c.207 0 .375.168.375.375s-.168.375-.375.375-.375-.168-.375-.375.168-.375.375-.375M16.125 12c.207 0 .375.168.375.375s-.168.375-.375.375-.375-.168-.375-.375.168-.375.375-.375M7.875 15.75c.207 0 .375.168.375.375s-.168.375-.375.375-.375-.168-.375-.375.168-.375.375-.375M12.156 15.75c.207 0 .375.168.375.375s-.168.375-.375.375-.375-.168-.375-.375.168-.375.375-.375M16.125 15.75c.207 0 .375.168.375.375s-.168.375-.375.375-.375-.168-.375-.375.168-.375.375-.375M7.875 19.5c.207 0 .375.168.375.375s-.168.375-.375.375-.375-.168-.375-.375.168-.375.375-.375M12.156 19.5c.207 0 .375.168.375.375s-.168.375-.375.375-.375-.168-.375-.375.168-.375.375-.375M16.125 19.5c.207 0 .375.168.375.375s-.168.375-.375.375-.375-.168-.375-.375.168-.375.375-.375"/>
    </g>
</svg>
