<svg xmlns="http://www.w3.org/2000/svg" width="24" height="24" viewBox="0 0 24 24">
    <g fill="none" fill-rule="evenodd" stroke="#000" stroke-linecap="round" stroke-linejoin="round" stroke-width="1.5">
        <path d="M21.75 21.75c0 .828-.672 1.5-1.5 1.5H3.75c-.828 0-1.5-.672-1.5-1.5V2.25c0-.828.672-1.5 1.5-1.5h10.629c.398 0 .779.158 1.06.439l5.872 5.872c.281.281.439.662.439 1.06V21.75z"/>
        <path d="M21.75 8.25h-6c-.828 0-1.5-.672-1.5-1.5v-6M5.642 9.344c.44.578 1.133.904 1.858.875 1.139 0 2.063-.693 2.063-1.547S8.639 7.126 7.5 7.126c-1.139 0-2.062-.693-2.062-1.548 0-.855.923-1.547 2.062-1.547.725-.03 1.419.297 1.858.875M7.5 10.219L7.5 11.25M7.5 3L7.5 4.031"/>
        <rect width="13.5" height="6" x="5.25" y="14.25" rx=".5"/>
        <path d="M5.25 17.25L18.75 17.25M9.75 14.25L9.75 20.25M14.25 14.25L14.25 20.25"/>
    </g>
</svg>
