<svg xmlns="http://www.w3.org/2000/svg" width="24" height="24" viewBox="0 0 24 24">
    <g fill="none" fill-rule="evenodd" stroke="#000" stroke-linecap="round" stroke-linejoin="round" stroke-width="1.5">
        <path d="M5.247 23.248h-3c-.828 0-1.5-.672-1.5-1.5v-19.5c0-.828.672-1.5 1.5-1.5h10.629c.398 0 .779.158 1.06.439l5.872 5.872c.281.281.439.662.439 1.06v4.629"/>
        <path d="M20.247 8.248h-6c-.828 0-1.5-.672-1.5-1.5v-6M21.747 23.248L21.747 15.748M20.247 15.748L23.247 15.748M9.747 23.248L9.747 15.748M8.247 15.748L11.247 15.748M14.247 15.748L17.247 23.248M17.247 15.748L14.247 23.248"/>
    </g>
</svg>
