<svg xmlns="http://www.w3.org/2000/svg" width="24" height="24" viewBox="0 0 24 24">
    <g fill="none" fill-rule="evenodd" stroke="#000" stroke-linecap="round" stroke-linejoin="round" stroke-width="1.5">
        <path d="M5.249 23.248h-3c-.828 0-1.5-.672-1.5-1.5v-19.5c0-.828.672-1.5 1.5-1.5h10.629c.398 0 .779.158 1.06.439l5.872 5.872c.281.281.439.662.439 1.06v4.629"/>
        <path d="M20.249 8.248h-6c-.828 0-1.5-.672-1.5-1.5v-6M8.249 15.748L11.249 23.248M11.249 15.748L8.249 23.248M14.249 15.748v6c0 .828.672 1.5 1.5 1.5h1.5M23.249 15.748h-1.5c-.828 0-1.5.672-1.5 1.5 0 2.25 3 2.25 3 4.5 0 .828-.672 1.5-1.5 1.5h-1.5"/>
    </g>
</svg>
