<svg xmlns="http://www.w3.org/2000/svg" width="24" height="24" viewBox="0 0 24 24">
    <g fill="none" fill-rule="evenodd" stroke="#000" stroke-linecap="round" stroke-linejoin="round" stroke-width="1.5">
        <path d="M3.751 23.254h-1.5c-.828 0-1.5-.672-1.5-1.5v-19.5c0-.828.672-1.5 1.5-1.5H12.88c.398 0 .78.158 1.061.439l5.871 5.871c.281.281.439.663.439 1.061v4.629"/>
        <path d="M20.251 8.254h-6c-.828 0-1.5-.672-1.5-1.5v-6M6.751 15.754L9.751 23.254M9.751 15.754L6.751 23.254M20.251 15.754v6c0 .828.672 1.5 1.5 1.5h1.5M17.251 23.254L17.251 15.754 15.001 19.504 12.751 15.754 12.751 23.254"/>
    </g>
</svg>
