<svg xmlns="http://www.w3.org/2000/svg" width="24" height="24" viewBox="0 0 24 24">
    <g fill="none" fill-rule="evenodd" stroke="#000" stroke-linecap="round" stroke-linejoin="round" stroke-width="1.5">
        <path d="M8.25 23.25h-6c-.828 0-1.5-.672-1.5-1.5V2.25c0-.828.672-1.5 1.5-1.5h10.629c.398 0 .779.158 1.06.439l5.872 5.872c.281.281.439.662.439 1.06v4.629"/>
        <path d="M20.25 8.25h-6c-.828 0-1.5-.672-1.5-1.5v-6M11.25 15.75h1.892c.25-.001.483.122.623.328.14.206.17.468.077.7l-2.178 5.443c-.092.232-.064.494.077.7.14.207.374.33.623.329h1.886M17.25 23.25L17.25 15.75M20.25 23.25L20.25 15.75M20.25 15.75H21c1.243 0 2.25 1.007 2.25 2.25s-1.007 2.25-2.25 2.25h-.75"/>
    </g>
</svg>
