<svg xmlns="http://www.w3.org/2000/svg" width="71" height="30" viewBox="0 0 71 30">
    <g fill="#93A5B2">
        <path d="M5.668 11.552c2.336 0 4.128-.976 4.128-3.168 0-2.048-1.472-2.72-3.84-3.248-2.048-.464-2.992-.784-2.992-2 0-1.152.8-1.856 2.56-1.856 1.36 0 2.56.592 3.088 1.184l.672-1.168C8.324.512 7.076 0 5.556 0c-2.352 0-4.08 1.184-4.08 3.36 0 1.808 1.2 2.432 3.504 2.992 2.112.512 3.28.896 3.28 2.176 0 1.136-.944 1.728-2.56 1.728-1.728 0-3.28-.8-3.968-1.52l-.688 1.216c1.28 1.04 2.88 1.6 4.624 1.6zm11.941-.016c1.76 0 3.792-.944 4.512-2.64l-1.2-.656c-.656 1.408-2.064 2-3.248 2-2.256 0-3.936-2.128-3.936-4.496 0-2.144 1.36-4.432 3.888-4.432 1.152 0 2.48.48 3.152 1.92l1.136-.736C21.21 1.04 19.705.016 17.69.016c-3.424 0-5.408 2.912-5.408 5.664 0 2.88 2.208 5.856 5.328 5.856zm12.134-.016c3.072 0 5.36-2.72 5.36-5.744C35.103 2.928 32.959 0 29.775 0c-3.072 0-5.376 2.736-5.376 5.76 0 2.912 2.16 5.76 5.344 5.76zm.016-1.296c-2.352 0-3.904-2.144-3.904-4.464 0-2.208 1.488-4.448 3.904-4.448 2.304 0 3.888 2.128 3.888 4.448 0 2.192-1.472 4.464-3.888 4.464zm10.117 1.216V7.36h3.008l2.592 4.08h1.632l-2.752-4.352c1.44-.368 2.384-1.792 2.384-3.376C46.74 1.92 45.3.08 43.3.08h-4.864v11.36h1.44zm3.44-5.36h-3.44V1.36h3.344c1.104 0 2.064 1.072 2.064 2.352 0 1.248-.784 2.368-1.968 2.368zm14.677 5.36v-1.28h-6.272V6.24h5.328v-1.2h-5.328V1.36h6.128V.08h-7.568v11.36h7.712zm4.742 0V7.36h3.008l2.592 4.08h1.632l-2.752-4.352c1.44-.368 2.384-1.792 2.384-3.376 0-1.792-1.44-3.632-3.44-3.632h-4.864v11.36h1.44zm3.44-5.36h-3.44V1.36h3.344c1.104 0 2.064 1.072 2.064 2.352 0 1.248-.784 2.368-1.968 2.368zM4.36 26.49c2.18 0 2.99-1.66 2.99-3.57v-3.58h-.7v3.58c0 1.45-.5 2.94-2.3 2.94-1.76 0-2.29-1.45-2.29-2.94v-3.58h-.69v3.58c0 1.81.74 3.57 2.99 3.57zm6.193-.05v-7.1h-.7v7.1h.7zm6.697 0v-2.18l1.33-1.38 2.71 3.56h.79l-3.05-3.98 2.9-3.12h-.77l-3.91 4.13v-4.12h-.7v7.09h.7zm7.263 0v-7.1h-.7v7.1h.7zm5.124 0v-6.48h2.53v-.62h-5.76v.62h2.53v6.48h.7z" transform="translate(.42 .56)"/>
    </g>
</svg>
