<?xml version="1.0" encoding="UTF-8"?>
<svg width="24px" height="24px" viewBox="0 0 24 24" version="1.1" xmlns="http://www.w3.org/2000/svg" xmlns:xlink="http://www.w3.org/1999/xlink">
    <title>FE38D4F3-F7AB-4853-ADE4-4627544DFE70</title>
    <g id="Export-Set" stroke="none" stroke-width="1" fill="none" fill-rule="evenodd" stroke-linecap="round" stroke-linejoin="round">
        <g id="Icon-Export-Set" transform="translate(-384.000000, -384.000000)" stroke="#000000" stroke-width="1.5">
            <g id="_Master/Icon/Action/Analyse" transform="translate(384.000000, 384.000000)">
                <line x1="6.726" y1="0.75" x2="17.226" y2="0.75" id="Path"></line>
                <path d="M15.726,8.25 L15.726,0.75 L8.226,0.75 L8.226,8.25 L1.489,18.615 C0.889844249,19.5367476 0.842849511,20.7123864 1.3665196,21.6790175 C1.8901897,22.6456487 2.90063486,23.248422 4,23.25 L19.948,23.25 C21.0480823,23.25 22.0598686,22.6476845 22.5845247,21.6807734 C23.1091809,20.7138623 23.0625449,19.5373487 22.463,18.615 L15.726,8.25 Z" id="Path"></path>
                <line x1="5.301" y1="12.75" x2="18.651" y2="12.75" id="Path"></line>
                <line x1="14.226" y1="17.25" x2="17.226" y2="17.25" id="Path"></line>
                <line x1="15.726" y1="15.75" x2="15.726" y2="18.75" id="Path"></line>
                <path d="M6.726,19.125 C6.93271615,19.1255512 7.10000073,19.2932831 7.1,19.5" id="Path"></path>
                <path d="M6.351,19.5 C6.351,19.2928932 6.51889322,19.125 6.726,19.125" id="Path"></path>
                <path d="M6.726,19.875 C6.51889322,19.875 6.351,19.7071068 6.351,19.5" id="Path"></path>
                <path d="M7.1,19.5 C7.1,19.7071068 6.93210678,19.875 6.725,19.875" id="Path"></path>
                <path d="M9.726,16.125 C9.93310678,16.125 10.101,16.2928932 10.101,16.5" id="Path"></path>
                <path d="M9.351,16.5 C9.351,16.2928932 9.51889322,16.125 9.726,16.125" id="Path"></path>
                <path d="M9.726,16.875 C9.51889322,16.875 9.351,16.7071068 9.351,16.5" id="Path"></path>
                <path d="M10.1,16.5 C10.1,16.7071068 9.93210678,16.875 9.725,16.875" id="Path"></path>
                <line x1="15.726" y1="3.75" x2="12.726" y2="3.75" id="Path"></line>
                <line x1="15.726" y1="6.75" x2="12.726" y2="6.75" id="Path"></line>
            </g>
        </g>
    </g>
</svg>