<svg xmlns="http://www.w3.org/2000/svg" width="24" height="24" viewBox="0 0 24 24">
    <g fill="none" fill-rule="evenodd" stroke-linecap="round" stroke-linejoin="round">
        <g stroke="#000" stroke-width="1.5">
            <g>
                <path d="M12 18.75c-.207 0-.375.168-.375.375s.168.375.375.375.375-.168.375-.375-.168-.375-.375-.375h0M12 15.75L12 8.25" transform="translate(-222 -222) translate(222 222)"/>
                <path d="M13.621 1.76C13.317 1.142 12.689.75 12 .75s-1.317.392-1.621 1.01L.906 21.058c-.232.472-.204 1.03.074 1.475.278.446.767.717 1.292.717h19.456c.525 0 1.014-.27 1.292-.717.278-.446.306-1.003.074-1.475L13.621 1.76z" transform="translate(-222 -222) translate(222 222)"/>
            </g>
        </g>
    </g>
</svg>
