<?xml version="1.0" encoding="UTF-8"?>
<svg width="24px" height="24px" viewBox="0 0 24 24" version="1.1" xmlns="http://www.w3.org/2000/svg" xmlns:xlink="http://www.w3.org/1999/xlink">
    <title>DE979996-BFCD-47C9-A39B-52039C5F0FF0</title>
    <g id="Export-Set" stroke="none" stroke-width="1" fill="none" fill-rule="evenodd" stroke-linecap="round" stroke-linejoin="round">
        <g id="Icon-Export-Set" transform="translate(-330.000000, -384.000000)" stroke="#000000" stroke-width="1.5">
            <g id="_Master/Icon/Action/Delete" transform="translate(330.000000, 384.000000)">
                <path d="M17.25,21 L6.75,21 C5.92157288,21 5.25,20.3284271 5.25,19.5 L5.25,6 L18.75,6 L18.75,19.5 C18.75,20.3284271 18.0784271,21 17.25,21 Z" id="Path"></path>
                <line x1="9.75" y1="16.5" x2="9.75" y2="10.5" id="Path"></line>
                <line x1="14.25" y1="16.5" x2="14.25" y2="10.5" id="Path"></line>
                <line x1="2.25" y1="6" x2="21.75" y2="6" id="Path"></line>
                <path d="M14.25,3 L9.75,3 C8.92157288,3 8.25,3.67157288 8.25,4.5 L8.25,6 L15.75,6 L15.75,4.5 C15.75,3.67157288 15.0784271,3 14.25,3 Z" id="Path"></path>
            </g>
        </g>
    </g>
</svg>