<svg xmlns="http://www.w3.org/2000/svg" width="24" height="24" viewBox="0 0 24 24">
    <g fill="none" fill-rule="evenodd" stroke-linecap="round" stroke-linejoin="round">
        <g stroke="#000" stroke-width="1.5">
            <g>
                <path d="M17.25 22.424c.207 0 .375.168.375.375M16.875 22.8c0-.207.168-.375.375-.375M17.25 23.174c-.207 0-.375-.168-.375-.375M17.625 22.8c0 .207-.168.375-.375.375M23.25 15.623c-3.5-2.831-8.5-2.831-12 0M13.75 19.238c2.041-1.65 4.959-1.65 7 0M17.25 3.75l-16.5 3v-3c0-1.657 1.343-3 3-3h13.786c.26 0 .501.135.638.356.137.22.15.497.033.729L17.25 3.75z" transform="translate(-492 -222) translate(492 222)"/>
                <path d="M15.75 4.023V7.5c0 1.243-1.007 2.25-2.25 2.25h-9c-1.243 0-2.25-1.007-2.25-2.25V6.477M6.75 9.75v1.5c0 1.657-1.343 3-3 3h-3M.75 12.75L.75 15.75M18.75 5.25L18.75 8.25" transform="translate(-492 -222) translate(492 222)"/>
            </g>
        </g>
    </g>
</svg>
