<?xml version="1.0" encoding="UTF-8"?>
<svg width="24px" height="24px" viewBox="0 0 24 24" version="1.1" xmlns="http://www.w3.org/2000/svg" xmlns:xlink="http://www.w3.org/1999/xlink">
    <title>3191A462-CB5D-49F3-AA20-473E58DEC59A</title>
    <g id="Export-Set" stroke="none" stroke-width="1" fill="none" fill-rule="evenodd" stroke-linecap="round" stroke-linejoin="round">
        <g id="Icon-Export-Set" transform="translate(-546.000000, -384.000000)" stroke="#000000" stroke-width="1.5">
            <g id="_Master/Icon/Action/Download-Video" transform="translate(546.000000, 384.000000)">
                <circle id="Oval" cx="17.25" cy="17.25" r="6"></circle>
                <line x1="17.25" y1="14.25" x2="17.25" y2="20.25" id="Path"></line>
                <line x1="17.25" y1="20.25" x2="15" y2="18" id="Path"></line>
                <line x1="17.25" y1="20.25" x2="19.5" y2="18" id="Path"></line>
                <path d="M8.25,20.25 L2.25,20.25 C1.42157288,20.25 0.75,19.5784271 0.75,18.75 L0.75,2.25 C0.75,1.42157288 1.42157288,0.75 2.25,0.75 L12.879,0.75 C13.2765472,0.75 13.6578016,0.907981752 13.939,1.189 L16.811,4.061 C17.0920182,4.34219839 17.25,4.72345279 17.25,5.121 L17.25,8.25" id="Path"></path>
                <path d="M6.241,12.678 C6.02863618,12.7840341 5.77651512,12.7725712 5.57464947,12.6477037 C5.37278381,12.5228363 5.24999998,12.3023639 5.24999998,12.065 L5.24999998,7.435 C5.24999998,7.1976361 5.37278381,6.97716374 5.57464947,6.85229629 C5.77651512,6.72742883 6.02863618,6.7159659 6.241,6.822 L10.872,9.138 C11.1039613,9.2537798 11.2505299,9.49074918 11.2505299,9.75 C11.2505299,10.0092508 11.1039613,10.2462202 10.872,10.362 L6.241,12.678 Z" id="Path"></path>
            </g>
        </g>
    </g>
</svg>