<svg xmlns="http://www.w3.org/2000/svg" width="24" height="24" viewBox="0 0 24 24">
    <g fill="none" fill-rule="evenodd" stroke-linecap="round" stroke-linejoin="round">
        <g stroke="#000" stroke-width="1.5">
            <g>
                <path d="M6.021 3.75c-1.942 2.337-3.05 5.8-4.47 9.48-.089.23-.058.49.082.694.14.204.37.326.618.326h1.9v3c0 1.657 1.343 3 3 3h1.5v3M19.151 23.25v-6.265c1.823-1.688 2.9-4.031 2.994-6.514.094-2.483-.803-4.9-2.494-6.721M10.151.75c-1.5 3 2.25 3 .75 6M15.039.75c-1.5 3 2.25 3 .75 6" transform="translate(-222 -114) translate(222 114)"/>
            </g>
        </g>
    </g>
</svg>
