<svg xmlns="http://www.w3.org/2000/svg" width="24" height="24" viewBox="0 0 24 24">
    <g fill="none" fill-rule="evenodd" stroke-linecap="round" stroke-linejoin="round">
        <g stroke="#000" stroke-width="1.5">
            <g>
                <path d="M8.25 23.248L8.25 0.748" transform="translate(-276 -276) translate(276 276)"/>
                <path d="M3.75 0L8.25 4.5 12.75 0" transform="translate(-276 -276) translate(276 276) matrix(1 0 0 -1 0 4.5)"/>
                <path d="M15.75.248h3.6c.299 0 .578.148.745.395.168.247.202.562.091.839l-4.372 6.531c-.111.277-.078.592.09.84.168.247.447.395.746.395h3.6M20.25 23.748V17c0-1.243-1.007-2.25-2.25-2.25s-2.25 1.007-2.25 2.25v6.75M15.75 20.748L20.25 20.748" transform="translate(-276 -276) translate(276 276)"/>
            </g>
        </g>
    </g>
</svg>
