<svg xmlns="http://www.w3.org/2000/svg" width="24" height="24" viewBox="0 0 24 24">
    <g fill="none" fill-rule="evenodd" stroke-linecap="round" stroke-linejoin="round">
        <g stroke="#000" stroke-width="1.5">
            <g transform="translate(-492 -60) translate(492 60)">
                <path d="M8.25 18v3.1c.061.785.713 1.393 1.5 1.4h12c.857-.03 1.528-.75 1.5-1.607V3.111c.015-.413-.135-.814-.416-1.116-.282-.302-.671-.48-1.084-.495h-12c-.443.03-.855.24-1.138.582-.284.342-.415.785-.362 1.226V6"/>
                <path d="M6.75 12.004L18.75 12.004 18.75 15.004M15.75 15.004L15.75 12.004"/>
                <circle cx="3.75" cy="12.004" r="3"/>
            </g>
        </g>
    </g>
</svg>
