<svg xmlns="http://www.w3.org/2000/svg" width="24" height="24" viewBox="0 0 24 24">
    <g fill="none" fill-rule="evenodd" stroke-linejoin="round">
        <g stroke="#000" stroke-width="1.5">
            <g transform="translate(-276 -330) translate(276 330)">
                <path d="M15.424 19.337c0 2.161 1.752 3.913 3.913 3.913 2.161 0 3.913-1.752 3.913-3.913 0-2.935-1.957-6.848-3.913-8.8-2.35 2.347-3.744 5.483-3.913 8.8h0z"/>
                <circle cx="9.75" cy="9.75" r="1.5"/>
                <path stroke-linecap="round" d="M10.858 8.739L14.25 4.5M11.874 18.5c-4.766 1.156-9.58-1.716-10.826-6.46C-.198 7.299 2.582 2.43 7.3 1.095c4.719-1.336 9.638 1.351 11.064 6.043"/>
                <path stroke-linecap="round" d="M13.213 5.8c-1.995-1.75-4.983-1.734-6.96.036-1.977 1.77-2.322 4.738-.803 6.914M14.05 12.75c.618-.878.95-1.926.95-3"/>
            </g>
        </g>
    </g>
</svg>
