<?xml version="1.0" encoding="UTF-8"?>
<svg width="24px" height="24px" viewBox="0 0 24 24" version="1.1" xmlns="http://www.w3.org/2000/svg" xmlns:xlink="http://www.w3.org/1999/xlink">
    <title>C3C154C2-D419-4661-AF5E-5F805F4151D6</title>
    <g id="Export-Set" stroke="none" stroke-width="1" fill="none" fill-rule="evenodd" stroke-linecap="round" stroke-linejoin="round">
        <g id="Icon-Export-Set" transform="translate(-546.000000, -330.000000)" stroke="#000000" stroke-width="1.5">
            <g id="_Master/Icon/Global/Language" transform="translate(546.000000, 330.000000)">
                <path d="M9.735,23.023 C4.12476662,21.8693419 0.276642637,16.6851027 0.796641412,10.981135 C1.31664019,5.27716741 6.0387733,0.874230499 11.7651339,0.754066186 C17.4914946,0.633901873 22.3941755,4.83486771 23.153,10.512" id="Path"></path>
                <path d="M9.289,22.922 C7.768,20.689 6.75,16.634 6.75,12 C6.75,7.366 7.768,3.312 9.289,1.079" id="Path"></path>
                <line x1="0.775" y1="11.251" x2="12.75" y2="11.251" id="Path"></line>
                <line x1="2.999" y1="5.251" x2="21" y2="5.251" id="Path"></line>
                <line x1="2.048" y1="17.251" x2="10.5" y2="17.251" id="Path"></line>
                <path d="M14.711,1.079 C15.8898207,3.03946634 16.6396371,5.22756679 16.911,7.499" id="Path"></path>
                <circle id="Oval" cx="18" cy="13.126" r="2.625"></circle>
                <path d="M18,16.4999999 C15.1005051,16.4999999 12.75,18.8505051 12.75,21.75 L12.75,23.25 L23.25,23.25 L23.25,21.75 C23.2502653,20.3575321 22.6972271,19.0220199 21.7126036,18.0373964 C20.7279801,17.0527729 19.3924679,16.4997347 18,16.4999999 L18,16.4999999 Z" id="Path"></path>
            </g>
        </g>
    </g>
</svg>