<svg xmlns="http://www.w3.org/2000/svg" width="24" height="24" viewBox="0 0 24 24">
    <g fill="none" fill-rule="evenodd" stroke-linecap="round" stroke-linejoin="round">
        <g stroke="#000" stroke-width="1.5">
            <g transform="translate(-492 -330) translate(492 330)">
                <path d="M9.735 23.023C4.125 21.869.277 16.685.797 10.981 1.317 5.277 6.039.874 11.765.754c5.726-.12 10.63 4.08 11.388 9.758"/>
                <path d="M9.289 22.922C7.768 20.689 6.75 16.634 6.75 12S7.768 3.312 9.289 1.079M.775 11.251L12.75 11.251M2.999 5.251L21 5.251M2.048 17.251L10.5 17.251M14.711 1.079c1.179 1.96 1.929 4.149 2.2 6.42"/>
                <circle cx="18" cy="13.126" r="2.625"/>
                <path d="M18 16.5c-2.9 0-5.25 2.35-5.25 5.25v1.5h10.5v-1.5c0-1.392-.553-2.728-1.537-3.713-.985-.984-2.32-1.537-3.713-1.537h0z"/>
            </g>
        </g>
    </g>
</svg>
