<svg xmlns="http://www.w3.org/2000/svg" width="18" height="18" viewBox="0 0 18 18">
    <defs>
        <filter id="0vq3x52ewa">
            <feColorMatrix in="SourceGraphic" values="0 0 0 0 0.756863 0 0 0 0 0.756863 0 0 0 0 0.756863 0 0 0 1.000000 0"/>
        </filter>
    </defs>
    <g fill="none" fill-rule="evenodd" stroke-linecap="round" stroke-linejoin="round">
        <g>
            <g>
                <g filter="url(#0vq3x52ewa)" transform="translate(-903 -988) translate(880 70) translate(0 895)">
                    <g>
                        <g stroke="#000" stroke-width="1.5" transform="translate(20 20) translate(3 3)">
                            <path d="M7.301 17.267C3.094 16.402.207 12.514.597 8.236.987 3.958 4.53.656 8.824.566c4.295-.09 7.972 3.06 8.54 7.318"/>
                            <path d="M6.967 17.192C5.826 15.517 5.063 12.476 5.063 9S5.825 2.484 6.966.81M.581 8.438L9.563 8.438M2.249 3.938L15.75 3.938M1.536 12.938L7.875 12.938M11.033.81c.884 1.47 1.447 3.11 1.65 4.814"/>
                            <circle cx="13.5" cy="9.845" r="1.969"/>
                            <path d="M13.5 12.375c-2.175 0-3.938 1.763-3.938 3.938v1.125h7.876v-1.125c0-1.045-.415-2.046-1.154-2.785-.738-.738-1.74-1.153-2.784-1.153h0z"/>
                        </g>
                    </g>
                </g>
            </g>
        </g>
    </g>
</svg>
