<svg xmlns="http://www.w3.org/2000/svg" width="24" height="24" viewBox="0 0 24 24">
    <g fill="none" fill-rule="evenodd" stroke-linecap="round" stroke-linejoin="round">
        <g stroke="#000" stroke-width="1.5">
            <g>
                <path d="M9.364 18.5l-.932.932c-1.757 1.757-4.607 1.757-6.364 0-1.757-1.757-1.757-4.607 0-6.364l4.773-4.774c1.66-1.663 4.32-1.77 6.107-.244 1.787 1.525 2.1 4.169.718 6.069" transform="translate(-330 -438) translate(330 438)"/>
                <path d="M14.818 5.567l.75-.75c1.757-1.757 4.607-1.757 6.364 0 1.757 1.757 1.757 4.607 0 6.364l-4.773 4.773c-1.66 1.663-4.32 1.768-6.106.243-1.787-1.526-2.1-4.169-.718-6.069" transform="translate(-330 -438) translate(330 438)"/>
            </g>
        </g>
    </g>
</svg>
