<svg xmlns="http://www.w3.org/2000/svg" width="24" height="24" viewBox="0 0 24 24">
    <g fill="none" fill-rule="evenodd" stroke-linecap="round" stroke-linejoin="round">
        <g stroke="#000" stroke-width="1.5">
            <g transform="translate(-384 -60) translate(384 60)">
                <circle cx="12" cy="7.5" r="3"/>
                <path d="M12 .75c3.728 0 6.75 3.022 6.75 6.75 0 3.251-5.132 10.527-6.446 12.337-.071.097-.184.154-.304.154s-.233-.057-.304-.154C10.382 18.027 5.25 10.751 5.25 7.5 5.25 3.772 8.272.75 12 .75z"/>
                <path d="M17.979 17.784c2.732.541 4.521 1.444 4.521 2.466 0 1.657-4.7 3-10.5 3s-10.5-1.343-10.5-3c0-1.02 1.781-1.921 4.5-2.463"/>
            </g>
        </g>
    </g>
</svg>
