<svg xmlns="http://www.w3.org/2000/svg" width="20" height="20" viewBox="0 0 20 20">
    <g fill="none" fill-rule="evenodd" stroke="#585858" stroke-linecap="round" stroke-linejoin="round" stroke-width="1.5" opacity=".653" transform="translate(.25 .25)">
        <circle cx="9.75" cy="6.094" r="2.438"/>
        <path d="M9.75.61c3.029 0 5.484 2.455 5.484 5.484 0 2.641-4.17 8.553-5.237 10.024-.058.078-.15.125-.247.125-.098 0-.19-.047-.247-.125-1.068-1.471-5.237-7.383-5.237-10.024C4.266 3.064 6.72.609 9.75.609z"/>
        <path d="M14.608 14.45c2.22.44 3.673 1.173 3.673 2.003 0 1.346-3.818 2.438-8.531 2.438-4.713 0-8.531-1.092-8.531-2.438 0-.829 1.447-1.56 3.656-2.001"/>
    </g>
</svg>
