<?xml version="1.0" encoding="UTF-8"?>
<svg width="24px" height="24px" viewBox="0 0 24 24" version="1.1" xmlns="http://www.w3.org/2000/svg" xmlns:xlink="http://www.w3.org/1999/xlink">
    <title>CEA2F467-E881-4923-9D04-D85FD7C05C75</title>
    <g id="Export-Set" stroke="none" stroke-width="1" fill="none" fill-rule="evenodd" stroke-linecap="round" stroke-linejoin="round">
        <g id="Icon-Export-Set" transform="translate(-168.000000, -438.000000)" stroke="#000000" stroke-width="1.5">
            <g id="_Master/Icon/Action/Password-Hide" transform="translate(168.000000, 438.000000)">
                <line x1="2.783" y1="20" x2="21.533" y2="2" id="Path"></line>
                <path d="M8.964,18.051 C9.94681456,18.3562275 10.9709085,18.5076828 12,18.5 C16.1,18.569 20.258,15.687 22.824,12.863 C23.3938167,12.2303973 23.3938167,11.2696027 22.824,10.637 C21.8944103,9.61721036 20.8645551,8.69355691 19.75,7.88" id="Path"></path>
                <path d="M14.413,5.282 C13.6239535,5.08564827 12.8130592,4.99088151 12,5 C7.969,4.933 3.8,7.752 1.179,10.635 C0.609183316,11.2676027 0.609183316,12.2283973 1.179,12.861 C1.97592454,13.7333975 2.84573761,14.5363019 3.779,15.261" id="Path"></path>
                <path d="M8.24999987,11.75 C8.24973466,10.7553568 8.6447376,9.80137549 9.34805654,9.09805654 C10.0513755,8.3947376 11.0053568,7.99973466 12,7.99999987" id="Path"></path>
                <path d="M15.7500001,11.749 L15.7500001,11.749 C15.7502653,12.7437351 15.3552942,13.6978192 14.652004,14.4012969 C13.9487139,15.1047746 12.9947351,15.5 12,15.5" id="Path"></path>
            </g>
        </g>
    </g>
</svg>