<?xml version="1.0" encoding="UTF-8"?>
<svg width="24px" height="24px" viewBox="0 0 24 24" version="1.1" xmlns="http://www.w3.org/2000/svg" xmlns:xlink="http://www.w3.org/1999/xlink">
    <title>C98FFB4E-9929-475D-86A2-1BD18FED98C3</title>
    <g id="Export-Set" stroke="none" stroke-width="1" fill="none" fill-rule="evenodd" stroke-linecap="round" stroke-linejoin="round">
        <g id="Icon-Export-Set" transform="translate(-114.000000, -438.000000)" stroke="#000000" stroke-width="1.5">
            <g id="_Master/Icon/Action/Password-Show" transform="translate(114.000000, 438.000000)">
                <path d="M12,5.251 C7.969,5.183 3.8,8 1.179,10.885 C0.609183316,11.5176027 0.609183316,12.4783973 1.179,13.111 C3.743,15.935 7.9,18.817 12,18.748 C16.1,18.817 20.258,15.935 22.824,13.111 C23.3938167,12.4783973 23.3938167,11.5176027 22.824,10.885 C20.2,8 16.031,5.183 12,5.251 Z" id="Path"></path>
                <path d="M15.7500001,12 C15.7494477,14.0709375 14.0702711,15.7493681 11.9993335,15.7489999 C9.92839592,15.7486318 8.24981611,14.0696044 8.25000015,11.9986668 C8.25018418,9.92772914 9.92906238,8.24899987 12,8.24899987 C12.9948165,8.2487345 13.9489495,8.64387469 14.6522972,9.34740998 C15.355645,10.0509453 15.7505307,11.0051836 15.7500001,12 L15.7500001,12 Z" id="Path"></path>
            </g>
        </g>
    </g>
</svg>