<svg xmlns="http://www.w3.org/2000/svg" width="24" height="24" viewBox="0 0 24 24">
    <g fill="none" fill-rule="evenodd" stroke="#000" stroke-linecap="round" stroke-linejoin="round" stroke-width="1.5">
        <path d="M4.949 8.783c-.401.235-.67.643-.729 1.104-.059.461.1.924.429 1.252l8.213 8.213c.328.33.79.488 1.252.429.46-.059.869-.328 1.104-.729.973-1.674 1.263-3.658.81-5.54l6.529-4.155c.384-.244.636-.65.686-1.102.05-.452-.108-.902-.43-1.224L16.97 1.188c-.322-.322-.772-.48-1.224-.43-.452.05-.858.301-1.102.685l-4.155 6.53c-1.882-.453-3.866-.163-5.54.81zM8.753 15.246L.75 23.249"/>
    </g>
</svg>
