<?xml version="1.0" encoding="UTF-8"?>
<svg width="24px" height="24px" viewBox="0 0 24 24" version="1.1" xmlns="http://www.w3.org/2000/svg" xmlns:xlink="http://www.w3.org/1999/xlink">
    <title>5FBFD901-C28D-436E-96C5-BD2D3ABBD2F7</title>
    <g id="Export-Set" stroke="none" stroke-width="1" fill="none" fill-rule="evenodd" stroke-linecap="round" stroke-linejoin="round">
        <g id="Icon-Export-Set" transform="translate(-492.000000, -384.000000)" stroke="#000000" stroke-width="1.5">
            <g id="_Master/Icon/Action/Retry-Job" transform="translate(492.000000, 384.000000)">
                <polyline id="Path" points="15 18.75 11.25 18.75 11.25 22.5"></polyline>
                <path d="M22.667,19.483 C21.8503458,21.8695693 19.5322758,23.4098471 17.0157033,23.2380921 C14.4991307,23.0663372 12.4118274,21.2253948 11.927,18.75" id="Path"></path>
                <polyline id="Path" points="19.5 15.75 23.25 15.75 23.25 12"></polyline>
                <path d="M11.833,15.017 C12.6496542,12.6304307 14.9677242,11.0901529 17.4842967,11.2619079 C20.0008693,11.4336628 22.0881726,13.2746052 22.573,15.75" id="Path"></path>
                <path d="M8.25,14.25 C5.95852152,14.2501807 4.03285023,12.5284013 3.7776412,10.2511789 C3.52243217,7.97395646 5.01919779,5.86862355 7.25386943,5.36155717 C9.48854108,4.85449078 11.7473766,6.1076452 12.5,8.272" id="Path"></path>
                <polyline id="Path" points="9.75 9.75 8.25 9.75 8.25 8.25"></polyline>
                <path d="M7.5,20.25 L2.25,20.25 C1.42157288,20.25 0.75,19.5784271 0.75,18.75 L0.75,2.25 C0.75,1.42157288 1.42157288,0.75 2.25,0.75 L12.879,0.75 C13.2766907,0.750350104 13.6579653,0.908615025 13.939,1.19 L16.811,4.061 C17.0922632,4.34244347 17.2501803,4.72410629 17.25,5.122 L17.25,7.5" id="Path"></path>
            </g>
        </g>
    </g>
</svg>