<svg xmlns="http://www.w3.org/2000/svg" width="24" height="24" viewBox="0 0 24 24">
    <g fill="none" fill-rule="evenodd" stroke-linecap="round" stroke-linejoin="round">
        <g stroke="#000" stroke-width="1.5">
            <g transform="translate(-546 -60) translate(546 60)">
                <path d="M15.5 15.418V3.75c0-1.657-1.343-3-3-3s-3 1.343-3 3v11.668c-1.39 1.244-1.87 3.217-1.204 4.96.666 1.743 2.338 2.894 4.204 2.894 1.866 0 3.538-1.151 4.204-2.894.666-1.743.187-3.716-1.204-4.96z"/>
                <circle cx="12.5" cy="18.75" r="1.5"/>
                <path d="M12.5 3.75L12.5 17.25M18.5 3.75L20 3.75M18.5 8.25L20 8.25M18.5 12.75L20 12.75"/>
            </g>
        </g>
    </g>
</svg>
