<svg xmlns="http://www.w3.org/2000/svg" width="24" height="24" viewBox="0 0 24 24">
    <g fill="none" fill-rule="evenodd" stroke-linecap="round" stroke-linejoin="round">
        <g stroke="#000" stroke-width="1.5">
            <g transform="translate(-60 -114) translate(60 114)">
                <path d="M8.25 15.418V3.75c0-1.657-1.343-3-3-3s-3 1.343-3 3v11.668c-1.533 1.381-1.929 3.629-.959 5.45.97 1.821 3.056 2.748 5.057 2.247 2.002-.501 3.405-2.302 3.402-4.365-.003-1.274-.548-2.486-1.5-3.332h0zM5.25 5.25L5.25 17.25"/>
                <circle cx="5.25" cy="18.75" r="1.5"/>
                <circle cx="15" cy="11.25" r="3.75"/>
                <path d="M15.75 4.5L15.75 3M19.773 6.477L20.834 5.416M21.75 11.25L23.25 11.25M19.773 16.023L20.834 17.084M15.75 18L15.75 19.5"/>
            </g>
        </g>
    </g>
</svg>
