<svg xmlns="http://www.w3.org/2000/svg" width="24" height="24" viewBox="0 0 24 24">
    <g fill="none" fill-rule="evenodd" stroke-linecap="round" stroke-linejoin="round">
        <g stroke="#000" stroke-width="1.5">
            <g>
                <path d="M15.75 23.229c-2.434 0-4.5-1.316-4.5-3.75v-3.75h9v3.75c0 .788-.607 3.75-4.5 3.75zM8.25 12.729L6.75 15.729M11.25 12.729h-9c-.828 0-1.5-.672-1.5-1.5v-9c0-.828.672-1.5 1.5-1.5H18c.828 0 1.5.672 1.5 1.5v4.5M5.25 15.729L8.25 15.729M3.75 9.729L11.25 9.729M5.25 9.729L5.25 7.479M8.25 9.729L8.25 5.979M11.25 9.729L11.25 3.729M14.277 10.184c-1.1 1.1 1.089 1.471.015 2.545M17.441 8.269c-1.912 1.911 1.9 2.561.026 4.432" transform="translate(-114 -330) translate(114 330)"/>
                <path d="M20.25 16.479H21c1.243 0 2.25 1.007 2.25 2.25s-1.007 2.25-2.25 2.25h-1.133" transform="translate(-114 -330) translate(114 330)"/>
            </g>
        </g>
    </g>
</svg>
