<?xml version="1.0" encoding="UTF-8"?>
<svg width="24px" height="24px" viewBox="0 0 24 24" version="1.1" xmlns="http://www.w3.org/2000/svg" xmlns:xlink="http://www.w3.org/1999/xlink">
    <title>1CD34979-B9E5-4ADD-8006-0982BFB19E0D</title>
    <g id="Export-Set" stroke="none" stroke-width="1" fill="none" fill-rule="evenodd" stroke-linecap="round" stroke-linejoin="round">
        <g id="Icon-Export-Set" transform="translate(-114.000000, -384.000000)" stroke="#000000" stroke-width="1.5">
            <g id="_Master/Icon/Global/View-Settings" transform="translate(114.000000, 384.000000)">
                <path d="M7.281,9.376 C7.528957,9.64978879 7.88111811,9.80597167 8.2505,9.80597167 C8.61988189,9.80597167 8.972043,9.64978879 9.22,9.376 L9.847,8.676 C10.2174273,8.26636905 10.8054766,8.13402699 11.3156783,8.34547002 C11.82588,8.55691305 12.1479252,9.06642578 12.12,9.618 L12.073,10.552 C12.0521974,10.9215974 12.1899484,11.2825346 12.4517069,11.5442931 C12.7134654,11.8060516 13.0744026,11.9438026 13.444,11.923 L14.378,11.876 C14.9299354,11.8473137 15.4400883,12.1694185 15.6514926,12.6800689 C15.8628969,13.1907192 15.7297025,13.7791635 15.319,14.149 L14.625,14.776 C14.3506397,15.0236307 14.1940461,15.375913 14.1940461,15.7455 C14.1940461,16.115087 14.3506397,16.4673693 14.625,16.715 L15.319,17.342 C15.7297025,17.7118365 15.8628969,18.3002808 15.6514926,18.8109311 C15.4400883,19.3215815 14.9299354,19.6436863 14.378,19.615 L13.444,19.568 C13.0748379,19.5488059 12.7148549,19.6870757 12.4534653,19.9484653 C12.1920757,20.2098549 12.0538059,20.5698379 12.073,20.939 L12.12,21.873 C12.1479252,22.4245742 11.82588,22.9340869 11.3156783,23.14553 C10.8054766,23.356973 10.2174273,23.224631 9.847,22.815 L9.22,22.115 C8.972043,21.8412112 8.61988189,21.6850283 8.2505,21.6850283 C7.88111811,21.6850283 7.528957,21.8412112 7.281,22.115 L6.654,22.815 C6.28357265,23.224631 5.69552342,23.356973 5.18532172,23.14553 C4.67512001,22.9340869 4.35307483,22.4245742 4.381,21.873 L4.428,20.939 C4.44655749,20.5700115 4.30808241,20.2104057 4.04683838,19.9491616 C3.78559435,19.6879176 3.42598849,19.5494425 3.057,19.568 L2.123,19.615 C1.57142578,19.6429252 1.06191305,19.32088 0.850470023,18.8106783 C0.639026992,18.3004766 0.771369045,17.7124273 1.181,17.342 L1.876,16.715 C2.14978879,16.467043 2.30597167,16.1148819 2.30597167,15.7455 C2.30597167,15.3761181 2.14978879,15.023957 1.876,14.776 L1.181,14.149 C0.771369045,13.7785727 0.639026992,13.1905234 0.850470023,12.6803217 C1.06191305,12.17012 1.57142578,11.8480748 2.123,11.876 L3.057,11.923 C3.42616206,11.9421941 3.78614512,11.8039243 4.04753472,11.5425347 C4.30892432,11.2811451 4.44719414,10.9211621 4.428,10.552 L4.381,9.618 C4.35307483,9.06642578 4.67512001,8.55691305 5.18532172,8.34547002 C5.69552342,8.13402699 6.28357265,8.26636905 6.654,8.676 L7.281,9.376 Z" id="Path"></path>
                <circle id="Oval" cx="8.25" cy="15.751" r="1.875"></circle>
                <path d="M18.638,5 C18.4308932,5 18.263,5.16789322 18.263,5.375 C18.263,5.58210678 18.4308932,5.75 18.638,5.75 C18.8451068,5.75 19.013,5.58210678 19.013,5.375 C19.013,5.16789322 18.8451068,5 18.638,5 L18.638,5" id="Path"></path>
                <path d="M21.194,1.848 C21.471236,1.74006502 21.7860612,1.80620189 21.9964296,2.01657036 C22.2067981,2.22693883 22.272935,2.54176396 22.165,2.819 L21.665,4.105 C21.5462651,4.40972856 21.6389709,4.75626205 21.894,4.961 L22.969,5.825 C23.2008002,6.01112822 23.3007873,6.31659879 23.2239065,6.60376493 C23.1470256,6.89093107 22.9077898,7.10558404 22.614,7.151 L21.251,7.362 C20.9277579,7.41142653 20.6739424,7.66483723 20.624,7.988 L20.413,9.352 C20.367584,9.6457898 20.1529311,9.88502563 19.8657649,9.96190646 C19.5785988,10.0387873 19.2731282,9.93880022 19.087,9.707 L18.223,8.632 C18.0181532,8.37717423 17.6719789,8.28416011 17.367,8.402 L16.081,8.902 C15.803764,9.00993498 15.4889388,8.94379811 15.2785704,8.73342964 C15.0682019,8.52306117 15.002065,8.20823604 15.11,7.931 L15.61,6.645 C15.7287349,6.34027144 15.6360291,5.99373795 15.381,5.789 L14.306,4.924 C14.0746459,4.73802233 13.9749504,4.43296647 14.0518251,4.14625635 C14.1286998,3.85954623 14.3676376,3.64528707 14.661,3.6 L16.024,3.389 C16.3472472,3.33885552 16.6008555,3.08524721 16.651,2.762 L16.862,1.4 C16.9069383,1.10614365 17.1214086,0.86667571 17.4085537,0.789742504 C17.6956987,0.712809298 18.0011648,0.812973554 18.187,1.045 L19.052,2.12 C19.2569216,2.37474728 19.603253,2.46739901 19.908,2.349 L21.194,1.848 Z" id="Path"></path>
            </g>
        </g>
    </g>
</svg>