<svg xmlns="http://www.w3.org/2000/svg" width="20" height="20" viewBox="0 0 20 20">
    <g fill="none" fill-rule="evenodd" stroke="#585858" stroke-linecap="round" stroke-linejoin="round" stroke-width="1.5" opacity=".653">
        <path d="M2.213.672C1.842.548 1.433.61 1.115.84c-.317.229-.506.596-.506.988v14.016c0 .482.284.918.724 1.114l4.311 1.828c.289.127.615.139.912.031l5.804-2.31c.281-.103.59-.098.87.014l3.99 1.568c.375.15.8.104 1.135-.123.335-.226.535-.604.536-1.008V3.344c0-.538-.353-1.013-.869-1.167L13.131.709c-.218-.065-.45-.068-.67-.008L6.447 2.394c-.232.064-.478.057-.706-.02L2.213.673z" transform="translate(.25 .25)"/>
        <path d="M3.047 3.656L3.047 15.234 6.094 16.453 12.797 14.016 16.453 15.234 16.453 4.266 12.797 3.047 6.094 4.875z" transform="translate(.25 .25)"/>
        <path d="M3.047 8.027L6.094 9.245 9.141 8.027M11.578 3.379L11.578 6.551M3.047 11.683L6.094 12.797 7.922 12.292 7.922 15.789M11.578 14.458L11.578 11.578 12.797 10.969 16.453 12.188" transform="translate(.25 .25)"/>
    </g>
</svg>
