<svg xmlns="http://www.w3.org/2000/svg" width="24" height="24" viewBox="0 0 24 24">
    <g fill="none" fill-rule="evenodd" stroke-linecap="round" stroke-linejoin="round">
        <g stroke="#000" stroke-width="1.5">
            <g>
                <path d="M2.724.827c-.457-.152-.96-.076-1.351.206S.75 1.768.75 2.25V19.5c0 .593.35 1.13.891 1.371l5.306 2.25c.355.157.757.171 1.122.039l7.143-2.844c.347-.126.728-.12 1.07.017l4.911 1.93c.462.185.986.128 1.398-.15.412-.28.659-.744.659-1.242V4.116c0-.663-.434-1.247-1.069-1.437L16.161.873c-.269-.08-.554-.084-.825-.01l-7.4 2.084c-.286.078-.588.07-.869-.024L2.724.827z" transform="translate(-114 -114) translate(114 114)"/>
                <path d="M3.75 4.5L3.75 18.75 7.5 20.25 15.75 17.25 20.25 18.75 20.25 5.25 15.75 3.75 7.5 6z" transform="translate(-114 -114) translate(114 114)"/>
                <path d="M3.75 9.879L7.5 11.379 11.25 9.879M14.25 4.159L14.25 8.063M3.75 14.379L7.5 15.75 9.75 15.129 9.75 19.432M14.25 17.795L14.25 14.25 15.75 13.5 20.25 15" transform="translate(-114 -114) translate(114 114)"/>
            </g>
        </g>
    </g>
</svg>
