<svg width="320" height="240" viewBox="20 40 300 174" fill="none" xmlns="http://www.w3.org/2000/svg">
    <rect  width="320" height="240" fill="#F0F0F0" />
    <path d="M113.8 112.087V130H112.588C112.396 130 112.233 129.967 112.1 129.9C111.975 129.833 111.85 129.721 111.725 129.562L101.363 116.062C101.379 116.271 101.392 116.475 101.4 116.675C101.408 116.875 101.413 117.062 101.413 117.237V130H99.2875V112.087H100.538C100.646 112.087 100.738 112.096 100.813 112.112C100.888 112.121 100.954 112.142 101.013 112.175C101.071 112.2 101.129 112.242 101.188 112.3C101.246 112.35 101.308 112.417 101.375 112.5L111.738 125.987C111.721 125.771 111.704 125.562 111.688 125.362C111.679 125.154 111.675 124.958 111.675 124.775V112.087H113.8ZM134.929 121.05C134.929 122.392 134.717 123.625 134.292 124.75C133.867 125.867 133.267 126.829 132.492 127.637C131.717 128.446 130.783 129.075 129.692 129.525C128.608 129.967 127.408 130.188 126.092 130.188C124.775 130.188 123.575 129.967 122.492 129.525C121.408 129.075 120.479 128.446 119.704 127.637C118.929 126.829 118.329 125.867 117.904 124.75C117.479 123.625 117.267 122.392 117.267 121.05C117.267 119.708 117.479 118.479 117.904 117.362C118.329 116.237 118.929 115.271 119.704 114.462C120.479 113.646 121.408 113.012 122.492 112.562C123.575 112.112 124.775 111.887 126.092 111.887C127.408 111.887 128.608 112.112 129.692 112.562C130.783 113.012 131.717 113.646 132.492 114.462C133.267 115.271 133.867 116.237 134.292 117.362C134.717 118.479 134.929 119.708 134.929 121.05ZM132.442 121.05C132.442 119.95 132.292 118.962 131.992 118.087C131.692 117.212 131.267 116.475 130.717 115.875C130.167 115.267 129.5 114.8 128.717 114.475C127.933 114.15 127.058 113.987 126.092 113.987C125.133 113.987 124.263 114.15 123.479 114.475C122.696 114.8 122.025 115.267 121.467 115.875C120.917 116.475 120.492 117.212 120.192 118.087C119.892 118.962 119.742 119.95 119.742 121.05C119.742 122.15 119.892 123.137 120.192 124.012C120.492 124.879 120.917 125.617 121.467 126.225C122.025 126.825 122.696 127.287 123.479 127.612C124.263 127.929 125.133 128.087 126.092 128.087C127.058 128.087 127.933 127.929 128.717 127.612C129.5 127.287 130.167 126.825 130.717 126.225C131.267 125.617 131.692 124.879 131.992 124.012C132.292 123.137 132.442 122.15 132.442 121.05ZM147.22 130H144.795V112.087H147.22V130ZM170.44 112.087V130H168.315V116.837C168.315 116.662 168.319 116.475 168.327 116.275C168.344 116.075 168.36 115.871 168.377 115.662L162.227 126.862C162.035 127.237 161.744 127.425 161.352 127.425H161.002C160.61 127.425 160.319 127.237 160.127 126.862L153.852 115.612C153.902 116.054 153.927 116.462 153.927 116.837V130H151.802V112.087H153.59C153.806 112.087 153.973 112.108 154.09 112.15C154.206 112.192 154.319 112.308 154.427 112.5L160.615 123.525C160.715 123.725 160.81 123.933 160.902 124.15C161.002 124.367 161.094 124.587 161.177 124.812C161.26 124.587 161.348 124.367 161.44 124.15C161.531 123.925 161.631 123.712 161.74 123.512L167.815 112.5C167.915 112.308 168.023 112.192 168.14 112.15C168.265 112.108 168.435 112.087 168.652 112.087H170.44ZM184.532 123.35L181.72 116.062C181.637 115.846 181.549 115.596 181.457 115.312C181.366 115.021 181.278 114.712 181.195 114.387C181.02 115.062 180.841 115.625 180.657 116.075L177.845 123.35H184.532ZM189.582 130H187.707C187.491 130 187.316 129.946 187.182 129.837C187.049 129.729 186.949 129.592 186.882 129.425L185.207 125.1H177.17L175.495 129.425C175.445 129.575 175.349 129.708 175.207 129.825C175.066 129.942 174.891 130 174.682 130H172.807L179.97 112.087H182.42L189.582 130ZM206.025 121.387V128.262C205.125 128.912 204.163 129.4 203.138 129.725C202.121 130.042 201.004 130.2 199.788 130.2C198.346 130.2 197.046 129.979 195.888 129.537C194.729 129.087 193.738 128.462 192.913 127.662C192.096 126.854 191.467 125.887 191.025 124.762C190.583 123.637 190.363 122.4 190.363 121.05C190.363 119.683 190.575 118.437 191 117.312C191.433 116.187 192.046 115.225 192.838 114.425C193.629 113.617 194.592 112.992 195.725 112.55C196.858 112.108 198.125 111.887 199.525 111.887C200.233 111.887 200.892 111.942 201.5 112.05C202.108 112.15 202.671 112.3 203.188 112.5C203.704 112.692 204.183 112.929 204.625 113.212C205.067 113.487 205.479 113.8 205.863 114.15L205.175 115.25C205.067 115.417 204.925 115.525 204.75 115.575C204.583 115.617 204.396 115.575 204.188 115.45C203.988 115.333 203.758 115.192 203.5 115.025C203.242 114.858 202.925 114.7 202.55 114.55C202.183 114.392 201.746 114.258 201.238 114.15C200.738 114.042 200.142 113.987 199.45 113.987C198.442 113.987 197.529 114.154 196.713 114.487C195.896 114.812 195.2 115.283 194.625 115.9C194.05 116.508 193.608 117.25 193.3 118.125C192.992 118.992 192.838 119.967 192.838 121.05C192.838 122.175 192.996 123.183 193.313 124.075C193.638 124.958 194.096 125.712 194.688 126.337C195.288 126.954 196.013 127.425 196.863 127.75C197.713 128.075 198.667 128.237 199.725 128.237C200.558 128.237 201.296 128.146 201.938 127.962C202.588 127.771 203.221 127.508 203.838 127.175V123.237H201.05C200.892 123.237 200.763 123.192 200.663 123.1C200.571 123.008 200.525 122.896 200.525 122.762V121.387H206.025ZM220.787 128.025L220.774 130H209.737V112.087H220.774V114.062H212.162V120.012H219.137V121.912H212.162V128.025H220.787Z" fill="#656565" textAlign="center" />
</svg>