<svg width="610" height="446" viewBox="0 0 610 446" fill="none" xmlns="http://www.w3.org/2000/svg">
<rect width="609.91" height="446" fill="#DDDDDD"/>
<path d="M242.675 210.273V235H239.246L226.677 216.865H226.447V235H222.717V210.273H226.17L238.751 228.432H238.98V210.273H242.675ZM269.596 222.636C269.596 225.277 269.113 227.546 268.148 229.446C267.182 231.338 265.858 232.795 264.175 233.817C262.501 234.831 260.597 235.338 258.464 235.338C256.323 235.338 254.412 234.831 252.729 233.817C251.055 232.795 249.735 231.334 248.769 229.434C247.803 227.534 247.32 225.268 247.32 222.636C247.32 219.996 247.803 217.73 248.769 215.839C249.735 213.939 251.055 212.482 252.729 211.468C254.412 210.446 256.323 209.935 258.464 209.935C260.597 209.935 262.501 210.446 264.175 211.468C265.858 212.482 267.182 213.939 268.148 215.839C269.113 217.73 269.596 219.996 269.596 222.636ZM265.902 222.636C265.902 220.624 265.576 218.93 264.924 217.553C264.28 216.169 263.394 215.122 262.268 214.414C261.149 213.698 259.881 213.339 258.464 213.339C257.04 213.339 255.768 213.698 254.649 214.414C253.53 215.122 252.645 216.169 251.993 217.553C251.349 218.93 251.027 220.624 251.027 222.636C251.027 224.649 251.349 226.347 251.993 227.732C252.645 229.108 253.53 230.154 254.649 230.871C255.768 231.579 257.04 231.933 258.464 231.933C259.881 231.933 261.149 231.579 262.268 230.871C263.394 230.154 264.28 229.108 264.924 227.732C265.576 226.347 265.902 224.649 265.902 222.636ZM286.977 210.273V235H283.246V210.273H286.977ZM292.41 210.273H296.938L304.81 229.494H305.1L312.972 210.273H317.499V235H313.95V217.107H313.72L306.428 234.964H303.482L296.189 217.094H295.96V235H292.41V210.273ZM325.012 235H321.052L329.951 210.273H334.261L343.159 235H339.199L332.208 214.764H332.015L325.012 235ZM325.676 225.317H338.523V228.456H325.676V225.317ZM362.303 218.085C362.069 217.352 361.755 216.696 361.361 216.116C360.974 215.529 360.512 215.03 359.972 214.619C359.433 214.201 358.817 213.883 358.125 213.665C357.441 213.448 356.688 213.339 355.867 213.339C354.475 213.339 353.219 213.698 352.1 214.414C350.981 215.13 350.096 216.181 349.444 217.565C348.8 218.942 348.478 220.628 348.478 222.624C348.478 224.629 348.804 226.323 349.456 227.707C350.108 229.092 351.001 230.142 352.136 230.859C353.271 231.575 354.563 231.933 356.012 231.933C357.356 231.933 358.527 231.66 359.526 231.112C360.532 230.565 361.308 229.792 361.856 228.794C362.411 227.788 362.689 226.605 362.689 225.244L363.655 225.425H356.58V222.347H366.299V225.16C366.299 227.237 365.856 229.04 364.971 230.569C364.094 232.09 362.878 233.265 361.325 234.094C359.779 234.924 358.008 235.338 356.012 235.338C353.774 235.338 351.81 234.823 350.12 233.793C348.438 232.762 347.126 231.301 346.184 229.41C345.242 227.51 344.771 225.256 344.771 222.648C344.771 220.676 345.045 218.906 345.592 217.336C346.14 215.766 346.908 214.434 347.898 213.339C348.897 212.237 350.068 211.396 351.412 210.816C352.764 210.228 354.241 209.935 355.843 209.935C357.179 209.935 358.423 210.132 359.574 210.526C360.733 210.921 361.763 211.48 362.665 212.205C363.574 212.929 364.327 213.79 364.923 214.788C365.518 215.778 365.921 216.877 366.13 218.085H362.303ZM371.035 235V210.273H386.538V213.484H374.766V221.018H385.729V224.218H374.766V231.788H386.683V235H371.035Z" fill="#656565"/>
</svg>
