<svg xmlns="http://www.w3.org/2000/svg" width="24" height="24" viewBox="0 0 24 24">
    <g fill="none" fill-rule="evenodd" stroke="#000" stroke-linecap="round" stroke-linejoin="round" stroke-width="1.5">
        <path d="M2.783 20l18.75-18M8.964 18.051A9.985 9.985 0 0 0 12 18.5c4.1.069 8.258-2.813 10.824-5.637.57-.633.57-1.593 0-2.226A20.568 20.568 0 0 0 19.75 7.88M14.413 5.282A9.549 9.549 0 0 0 12 5c-4.031-.067-8.2 2.752-10.821 5.635a1.663 1.663 0 0 0 0 2.226 20.8 20.8 0 0 0 2.6 2.4M8.25 11.75A3.749 3.749 0 0 1 12 8M15.75 11.749A3.75 3.75 0 0 1 12 15.5"/>
    </g>
</svg>
