<svg xmlns="http://www.w3.org/2000/svg" width="24" height="24" viewBox="0 0 24 24">
    <path fill="none" fill-rule="evenodd" stroke="#000" stroke-linecap="round" stroke-linejoin="round" stroke-width="1.5" d="M21 8.953h-3.8l1.9-3.295c.414-.717.168-1.635-.549-2.049l-2.6-1.5c-.717-.414-1.635-.168-2.049.549L12 5.953l-1.9-3.3c-.414-.717-1.332-.963-2.049-.549l-2.6 1.5c-.346.199-.599.527-.702.912-.104.386-.05.797.151 1.142l1.9 3.295H3c-.828 0-1.5.672-1.5 1.5v3c0 .828.672 1.5 1.5 1.5h3.8l-1.9 3.294c-.2.345-.254.756-.15 1.14.102.386.355.714.701.913l2.6 1.5c.717.414 1.635.168 2.049-.549l1.9-3.298 1.9 3.294c.414.717 1.332.963 2.049.549l2.6-1.5c.717-.414.963-1.332.549-2.049l-1.9-3.294H21c.828 0 1.5-.672 1.5-1.5v-3c0-.828-.672-1.5-1.5-1.5z"/>
</svg>
