<svg xmlns="http://www.w3.org/2000/svg" width="300" height="56" viewBox="0 0 300 56">
    <defs>
        <filter id="03hqrhcppa">
            <feColorMatrix in="SourceGraphic" values="0 0 0 0 1.000000 0 0 0 0 1.000000 0 0 0 0 1.000000 0 0 0 1.000000 0"/>
        </filter>
    </defs>
    <g fill="none" fill-rule="evenodd">
        <g>
            <g>
                <path fill="#FFF" d="M50.263 0c2.762 0 5 2.239 5 5v45.263c0 2.762-2.238 5-5 5H5c-2.761 0-5-2.238-5-5V5c0-2.761 2.239-5 5-5h45.263zM23.29 9.079l-.326.034c-.964.138-1.792.602-2.382 1.313-.655.79-.957 1.813-.836 2.832l-.008 4.11.01.161c.08.578.575 1.024 1.174 1.024.654 0 1.184-.53 1.184-1.185v-4.25l-.012-.212c-.006-.408.105-.72.31-.968.241-.29.59-.468.966-.493l18.868.002.18.023c.24.05.48.184.664.381.23.247.353.576.34.913v28.12l-.004.168c-.058.66-.575 1.162-1.223 1.186l-18.905-.001-.166-.013c-.543-.082-.977-.535-1.021-1.105l.003-4.803-.01-.16c-.079-.579-.574-1.024-1.174-1.024-.654 0-1.184.53-1.184 1.184v4.895l.029.261c.26 1.81 1.74 3.118 3.513 3.133h18.958l.253-.017c1.84-.188 3.236-1.682 3.299-3.494l-.002-28.595c-.045-.82-.387-1.633-.972-2.262-.659-.707-1.57-1.123-2.536-1.157l-18.99-.001zm8.289 18.953v3.553l.012.161c.078.578.574 1.023 1.173 1.023.654 0 1.184-.53 1.184-1.184v-3.553h2.369v3.553l.01.161c.079.578.574 1.023 1.174 1.023.654 0 1.184-.53 1.184-1.184v-4.737l-.01-.16c-.079-.578-.574-1.024-1.174-1.024H19.618c-.548-2.702-2.938-4.737-5.802-4.737-3.27 0-5.921 2.651-5.921 5.921 0 3.27 2.65 5.921 5.92 5.921 2.865 0 5.255-2.034 5.803-4.736l11.96-.001zm-17.762-4.736c1.962 0 3.552 1.59 3.552 3.552s-1.59 3.553-3.552 3.553-3.553-1.59-3.553-3.553c0-1.962 1.59-3.552 3.553-3.552z" transform="translate(-580 -265) translate(580 265.5)"/>
                <path fill="#FFF" fill-rule="nonzero" d="M89.113 53.817c3.293 0 5.659-1.349 5.659-4.244 0-2.808-2.1-3.692-5.438-4.4-3.007-.662-4.355-1.149-4.355-3.006 0-1.79 1.216-2.918 3.979-2.918 1.879 0 3.404.686 4.288 1.68l.752-1.237c-1.304-1.15-2.94-1.813-5.018-1.813-3.272 0-5.593 1.592-5.593 4.51 0 2.542 1.747 3.337 5.018 4.089 3.117.707 4.73 1.326 4.73 3.25 0 1.812-1.48 2.718-3.978 2.718-2.388 0-4.443-.972-5.57-2.166l-.774 1.26c1.746 1.503 3.868 2.277 6.3 2.277zm16.52 0c2.41 0 5.194-1.304 6.211-3.648l-1.282-.663c-.995 2.034-3.073 2.918-4.84 2.918-3.339 0-5.88-3.139-5.88-6.61 0-3.16 2.055-6.52 5.813-6.52 1.702 0 3.647.707 4.664 2.785l1.216-.752c-.95-2.011-3.007-3.426-5.792-3.426-4.73 0-7.45 4.045-7.45 7.825 0 3.98 3.03 8.09 7.34 8.09zm16.851-.022c4.2 0 7.361-3.758 7.361-7.936 0-3.935-2.962-7.98-7.339-7.98-4.2 0-7.383 3.78-7.383 7.958 0 4.023 2.984 7.958 7.361 7.958zm0-1.393c-3.448 0-5.813-3.16-5.813-6.565 0-3.25 2.254-6.543 5.813-6.543 3.404 0 5.814 3.139 5.814 6.543 0 3.227-2.255 6.565-5.814 6.565zm13.669 1.282v-5.791h4.642l3.691 5.791h1.747l-3.847-6.057c2.1-.42 3.493-2.431 3.493-4.708 0-2.432-1.945-4.93-4.642-4.93h-6.632v15.695h1.548zm5.128-7.162h-5.128V39.36h4.995c1.725 0 3.184 1.658 3.184 3.559 0 1.857-1.194 3.603-3.05 3.603zm20.145 7.162v-1.37h-8.997v-5.99h7.671v-1.305h-7.67V39.36h8.797v-1.37h-10.345v15.694h10.544zm6.308 0v-5.791h4.642l3.691 5.791h1.747l-3.847-6.057c2.1-.42 3.493-2.431 3.493-4.708 0-2.432-1.945-4.93-4.642-4.93h-6.632v15.695h1.548zm5.128-7.162h-5.128V39.36h4.995c1.725 0 3.184 1.658 3.184 3.559 0 1.857-1.194 3.603-3.05 3.603zm27.624 7.162v-1.37h-8.997v-5.99h7.671v-1.305h-7.67V39.36h8.797v-1.37h-10.345v15.694h10.544zm8.85.221c1.68 0 3.382-.95 4.288-2.453v1.127c0 .575.53 1.105 1.172 1.15.199.022.376 0 .685-.045v-1.193c-.376-.023-.53-.2-.53-.62V37.548h-1.504v7.03c-.862-1.437-2.431-2.609-4.354-2.609-3.05 0-5.261 2.741-5.261 5.99 0 3.096 2.299 5.947 5.504 5.947zm.331-1.326c-2.41 0-4.288-2.122-4.288-4.62 0-2.365 1.614-4.664 4.09-4.664 1.591 0 3.404 1.282 3.978 2.873v3.56c-.243 1.569-2.276 2.85-3.78 2.85zm15.238 6.035c3.073 0 5.637-1.68 5.637-4.886v-11.56h-1.348v2.409c-1.017-1.481-2.454-2.609-4.421-2.609-3.161 0-5.35 2.786-5.35 5.99 0 3.03 2.233 5.88 5.394 5.88 1.658 0 3.338-.927 4.222-2.386v2.276c0 2.476-1.901 3.692-4.134 3.692-1.724 0-3.338-.685-4.244-2.144l-.928.73c1.016 1.59 2.52 2.608 5.172 2.608zm.332-6.035c-2.388 0-4.289-2.122-4.289-4.598 0-2.277 1.548-4.686 4.112-4.686 1.658 0 3.338 1.216 3.979 2.873v3.56c-.265 1.414-2.012 2.85-3.802 2.85zm15.437 1.326c2.232 0 4.2-1.193 4.907-2.873l-1.304-.354c-.553 1.238-2.034 2.078-3.537 2.078-2.21 0-4.067-1.813-4.266-4.289h9.859c.022-.11.022-.353.022-.596 0-3.162-2.321-5.903-5.703-5.903-3.316 0-5.748 2.697-5.748 5.925 0 3.271 2.432 6.012 5.77 6.012zm4.266-6.52h-8.51c.154-2.477 1.989-4.245 4.244-4.245 2.254 0 4.067 1.746 4.266 4.244zM90.619 23.684l5.027-14.223 5.154 14.223h2.375l5.684-17.937h-2.577l-4.497 14.577L96.86 5.747h-2.476l-4.75 14.577-4.521-14.577H82.56l5.684 17.937h2.375zm35.124 0v-2.02h-9.903v-6.19h8.413v-1.895h-8.413v-5.81h9.676V5.746h-11.95v17.937h12.177zm13.726 0c2.88 0 5.255-1.844 5.255-4.623 0-2.223-1.288-3.966-3.335-4.573 1.643-.732 2.577-2.4 2.577-4.168 0-2.248-1.566-4.573-4.092-4.573h-8.918v17.937h8.513zm-.53-9.979h-5.71V7.718h5.862c1.515 0 2.627 1.314 2.627 3.006 0 1.642-1.187 2.981-2.78 2.981zm.53 8.009h-6.24v-6.165h6.417c1.592 0 2.78 1.466 2.78 3.108 0 1.617-1.29 3.057-2.957 3.057zm26.24 2.097c2.072 0 3.891-.834 5.457-2.552v2.425h1.92v-8.943h-5.785v1.718h3.865v2.476c-1.591 1.92-3.334 2.83-5.28 2.83-3.537 0-6.24-3.21-6.24-7.05 0-3.637 2.35-7.048 6.013-7.048 2.198 0 4.093 1.01 5.154 3.082l1.743-1.212c-1.162-2.324-3.385-3.916-6.847-3.916-4.8 0-8.362 4.219-8.362 9.044 0 4.623 3.613 9.146 8.362 9.146zm13.474-.127l2.097-5.255h7.528l2.123 5.255h2.425l-7.327-17.937h-1.92l-7.351 17.937h2.425zm9.12-7.023h-6.568l3.334-8.286 3.234 8.286zm14.61 7.023V7.768h6.19v-2.02h-14.652v2.02h6.189v15.916h2.274zm23.05 0v-2.02h-9.904v-6.19h8.413v-1.895h-8.413v-5.81h9.676V5.746h-11.95v17.937h12.177z" transform="translate(-580 -265) translate(580 265.5)"/>
            </g>
        </g>
    </g>
</svg>
