<?xml version="1.0" encoding="UTF-8"?>
<svg width="68px" height="32px" viewBox="0 0 68 32" version="1.1" xmlns="http://www.w3.org/2000/svg" xmlns:xlink="http://www.w3.org/1999/xlink">
    <title>LogoText</title>
    <g id="Main-Menu" stroke="none" stroke-width="1" fill="none" fill-rule="evenodd">
        <g id="Global/Main-Menu/Desktop/Ω---Parts/Logo-(Scorer-Cloud)" transform="translate(-55.000000, -7.000000)" fill="#93CEF9" fill-rule="nonzero">
            <g id="Logo" style="mix-blend-mode: luminosity;" transform="translate(0.000000, 3.000000)">
                <g id="LogoText" transform="translate(55.000000, 4.453857)">
                    <path d="M5.2151884,19.8556771 C6.59014462,19.7975861 7.93468513,20.2716404 8.97001696,21.179544 L8.57954651,21.6608711 C7.63992092,20.8781029 6.45215999,20.4568784 5.23001845,20.473003 C3.98825341,20.4711041 2.79970123,20.9777055 1.94021624,21.8752287 C1.08073126,22.7727519 0.625049013,23.9831539 0.678930046,25.225509 C0.678930046,27.963002 2.63166253,30.1289193 5.27510616,30.1289193 C6.60236336,30.135795 7.87975163,29.6229599 8.8346995,28.6998437 L9.24,29.1513597 C8.18441106,30.1923138 6.75644119,30.766482 5.27510616,30.7455923 C2.21098875,30.7455923 0.00304895406,28.2790633 0.00304895406,25.2254546 C-0.0453102006,23.8131185 0.483306056,22.4420639 1.46689382,21.4287281 C2.45048158,20.4153923 3.80404677,19.8473401 5.2151884,19.8556771 Z" id="Path"></path>
                    <path d="M11.7711445,19.8509049 L12.3753898,19.8509049 L12.3753898,28.9182101 C12.3753898,30.000769 12.8932548,30.1248338 13.2245698,30.1248338 C13.2966054,30.1245635 13.3685552,30.1194612 13.44,30.1095565 L13.44,30.7128683 C13.354879,30.7317873 13.2682893,30.7420361 13.1813797,30.7434788 C12.7823828,30.7695876 12.393381,30.602766 12.1205758,30.2885581 C11.8477706,29.9743501 11.7196515,29.5455691 11.7711965,29.1192767 L11.7711445,19.8509049 Z" id="Path"></path>
                    <path d="M18.9,23.2033823 C19.9044549,23.1962348 20.8698721,23.5867037 21.5801475,24.2873843 C22.2904228,24.988065 22.6862385,25.9404409 22.6789931,26.9313273 C22.7105739,28.2836663 21.9972887,29.5468275 20.8150755,30.2321507 C19.6328623,30.9174738 18.1671377,30.9174738 16.9849245,30.2321507 C15.8027113,29.5468275 15.0894261,28.2836663 15.1210069,26.9313273 C15.1137615,25.9404409 15.5095772,24.988065 16.2198525,24.2873843 C16.9301279,23.5867037 17.8955451,23.1962348 18.9,23.2033823 L18.9,23.2033823 Z M18.9,30.1555044 C19.7521047,30.1465507 20.5647235,29.7997658 21.1547961,29.1932707 C21.7448687,28.5867757 22.0627658,27.771581 22.0368741,26.9313273 C22.0529485,25.8152907 21.4586042,24.7771772 20.4814446,24.2145311 C19.5042849,23.651885 18.2957151,23.651885 17.3185554,24.2145311 C16.3413958,24.7771772 15.7470515,25.8152907 15.7631259,26.9313273 C15.7372052,27.7715987 16.0550895,28.5868205 16.6451652,29.1933384 C17.235241,29.7998562 18.0478765,30.1466554 18.9,30.1556085 L18.9,30.1555044 Z" id="Shape"></path>
                    <path d="M25.2002065,23.2032859 L25.7995618,23.2032859 L25.7995618,27.6522332 C25.7995618,28.9337964 25.9567816,30.141992 27.5551485,30.141992 C29.3390204,30.141992 30.4806963,28.5217227 30.4806963,26.7978755 L30.4806963,23.2032859 L31.08,23.2032859 L31.08,30.5689311 L30.4806963,30.5689311 L30.4806963,29.2728222 C30.4804353,29.0698476 30.4994518,28.8673356 30.537473,28.6681916 L30.5092395,28.6681916 C30.016619,29.9091982 28.8540337,30.7269208 27.5549421,30.746143 C25.7993553,30.746143 25.2,29.7444639 25.2,27.8734551 L25.2002065,23.2032859 Z" id="Path"></path>
                    <path d="M37.4538911,22.727633 C38.4582499,22.7441825 39.3643772,23.4171592 39.7814246,24.4562816 L39.8085285,24.4562816 C39.7727161,24.2498297 39.7547882,24.0398827 39.7550019,23.8294528 L39.7550019,19.8509049 L40.32,19.8509049 L40.32,30.5606134 L39.7548072,30.5606134 L39.7548072,29.5972404 C39.7524286,29.4017004 39.7703956,29.2065266 39.8083339,29.0157859 L39.7812299,29.0157859 C39.3538328,30.1010594 38.3914245,30.7843319 37.3463025,30.7444898 C35.5433789,30.7444898 34.44,29.1076964 34.44,26.7359507 C34.4401946,24.3033371 35.6914045,22.727633 37.4538911,22.727633 Z M37.3733578,30.1173844 C38.6112833,30.1173844 39.7683835,29.1230794 39.7683835,26.7205677 C39.7683835,25.0226851 39.0013953,23.3551258 37.4275171,23.3551258 C36.108815,23.3551258 35.03254,24.594175 35.03254,26.7360614 C35.0322967,28.8014202 36.0007398,30.1173844 37.3733578,30.1173844 Z" id="Shape"></path>
                    <path d="M0.820646791,10.2913627 C1.67806584,11.1339631 2.81561976,11.6180016 4.00760874,11.647441 C5.34114,11.647441 6.43220623,10.8375058 6.43220623,9.49885983 C6.43220623,6.38136009 0.35317507,7.17386295 0.35317507,3.33439445 C0.35317507,1.55537975 1.89441293,0.00523879733 4.14595674,0.00523879733 C5.3413607,-0.0289914837 6.50505445,0.39905017 7.40233005,1.2030311 L6.81338847,2.22483682 C6.07557024,1.56206472 5.1302071,1.18741859 4.14595674,1.16773724 C2.58736605,1.16773724 1.58301126,2.20718988 1.58301126,3.29915423 C1.58301126,6.24023826 7.66209516,5.39479461 7.66209516,9.46356596 C7.66209516,11.3127393 6.25909981,12.8099931 3.97290307,12.8099931 C2.52817334,12.8319912 1.13576818,12.2605619 0.110710047,11.2249874 L0.820646791,10.2913627 Z" id="Path"></path>
                    <path d="M16.0961015,0.00523879733 C17.7064369,-0.0616187024 19.278801,0.513585441 20.4782467,1.60832055 L19.8370884,2.50665137 C18.8007525,1.61639826 17.4871864,1.1293844 16.1305962,1.13244337 C13.2731799,1.13244337 11.2293427,3.38690615 11.2293427,6.310826 C11.2293427,9.26998607 13.2731799,11.6827349 16.1653019,11.6827349 C17.6429796,11.6728953 19.0590187,11.0792347 20.1142063,10.0271951 L20.8071594,10.890232 C19.5703783,12.1401119 17.8914304,12.8318983 16.147949,12.8099931 C12.5455211,12.8099931 9.98257563,9.93901404 9.98257563,6.32841929 C9.93408063,4.65523426 10.5591331,3.03439051 11.713158,1.84078993 C12.867183,0.647189346 14.4502162,-0.0157757387 16.0961015,0.00523879733 Z" id="Path"></path>
                    <path d="M28.6717395,0.00523879733 C30.3230151,-0.00732871986 31.9099901,0.655447782 33.0759734,1.8446016 C34.2419568,3.03375541 34.8891286,4.64952274 34.8720296,6.32874112 C34.9355108,8.62371151 33.7678277,10.7725272 31.8233421,11.9390541 C29.8788566,13.105581 27.4646752,13.105581 25.5201897,11.9390541 C23.5757041,10.7725272 22.4080211,8.62371151 22.4715022,6.32874112 C22.45436,4.64951892 23.1015107,3.03373422 24.2674921,1.84457233 C25.4334734,0.655410451 27.02046,-0.00735831114 28.6717395,0.00523879733 Z M28.6717395,11.6827349 C31.4081607,11.6827349 33.6249988,9.357738 33.6249988,6.32847293 C33.6809204,4.4916669 32.749256,2.76951832 31.1937009,1.83430503 C29.6381458,0.899091738 27.7053332,0.899091738 26.1497781,1.83430503 C24.5942231,2.76951832 23.6625587,4.4916669 23.7184803,6.32847293 C23.7182693,9.357738 25.9178073,11.6827349 28.6717395,11.6827349 Z" id="Shape"></path>
                    <path d="M37.8095643,0.216948359 L41.4119922,0.216948359 C42.188749,0.159710918 42.9684942,0.273884916 43.6978197,0.551650074 C44.8913514,1.13447796 45.6177356,2.3955134 45.5339503,3.7392548 C45.6153899,5.26107731 44.6643189,6.64269168 43.230348,7.08568192 L43.230348,7.12092215 C43.3440201,7.27870843 43.4481535,7.44337724 43.5421716,7.61401716 L46.1918286,12.5987663 L44.8235916,12.5987663 L42.0698704,7.38514341 L39.0043256,7.38514341 L39.0043256,12.5987663 L37.8095643,12.5987663 L37.8095643,0.216948359 Z M41.8968167,6.29317906 C43.369118,6.29317906 44.3041141,5.32468962 44.3041141,3.77454866 C44.3743177,2.89591801 43.9435167,2.05402621 43.1956423,1.60832055 C42.6527956,1.36015318 42.0566221,1.25707604 41.4636287,1.30885906 L39.0043256,1.30885906 L39.0043256,6.29317906 L41.8968167,6.29317906 Z" id="Shape"></path>
                    <polygon id="Path" points="49.2793677 0.216948359 56.137747 0.216948359 56.137747 1.30885906 50.474129 1.30885906 50.474129 5.81778463 55.0986865 5.81778463 55.0986865 6.90969533 50.474129 6.90969533 50.474129 11.5068019 56.4495179 11.5068019 56.4495179 12.5990345 49.2793677 12.5990345"></polygon>
                    <path d="M59.5911726,0.216948359 L63.1936005,0.216948359 C63.9703573,0.159710918 64.7501025,0.273884916 65.479428,0.551650074 C66.6729783,1.13448543 67.399366,2.39554808 67.3155586,3.73930844 C67.3969732,5.26111146 66.4459071,6.64269641 65.0119563,7.08568192 L65.0119563,7.12097579 C65.1256298,7.27873128 65.2297464,7.44338344 65.3237272,7.61401716 L67.9734368,12.5987663 L66.6053581,12.5987663 L63.8516369,7.38514341 L60.7860921,7.38514341 L60.7860921,12.5987663 L59.5913308,12.5987663 L59.5911726,0.216948359 Z M63.678425,6.29317906 C65.1507262,6.29317906 66.0856697,5.32474325 66.0856697,3.77454866 C66.1558967,2.8959268 65.7251143,2.05403125 64.9772506,1.60832055 C64.4343895,1.36020121 63.8382283,1.25712619 63.245237,1.30885906 L60.7859339,1.30885906 L60.7859339,6.29317906 L63.678425,6.29317906 Z" id="Shape"></path>
                </g>
            </g>
        </g>
    </g>
</svg>